<svg width="529" height="442" viewBox="0 0 529 442" fill="none" xmlns="http://www.w3.org/2000/svg">
<g clip-path="url(#clip0)">
<path d="M119.481 309.948C105.541 309.948 94.2051 298.612 94.2051 284.672C94.2051 270.732 105.541 259.396 119.481 259.396C133.421 259.396 144.757 270.732 144.757 284.672C144.757 298.612 133.421 309.948 119.481 309.948ZM119.481 260.348C106.081 260.348 95.1577 271.272 95.1577 284.672C95.1577 298.072 106.081 308.995 119.481 308.995C132.881 308.995 143.804 298.072 143.804 284.672C143.804 271.272 132.881 260.348 119.481 260.348Z" fill="url(#paint0_linear)"/>
<path d="M399.422 356.816C399.041 355.673 398.66 354.593 398.596 353.482C398.437 351.132 399.549 348.973 400.724 346.718C401.676 344.908 402.629 343.035 402.883 341.034C403.264 340.622 403.486 340.145 403.518 339.605C403.645 337.605 400.851 335.763 396.723 335.16C395.579 335.001 394.944 334.525 394.944 334.176C394.913 333.795 395.643 332.905 398.564 332.08C398.85 331.985 399.199 331.889 399.612 331.794C405.169 330.302 418.188 326.84 416.219 317.092C415.934 315.695 416.315 314.203 417.331 312.71C422.507 304.994 442.892 298.611 446.639 297.913C446.766 297.881 446.893 297.849 447.02 297.849C445.941 301.946 445.337 307.979 444.798 313.409C444.385 317.473 444.004 321.284 443.496 323.729C442.765 327.19 441.082 330.429 439.717 333.032C438.606 335.16 437.653 337.002 437.494 338.431C437.399 339.415 437.59 341.066 437.875 343.194C438.447 347.639 439.336 354.339 437.526 359.293C436.573 361.96 435.24 363.611 433.874 365.358C431.461 368.406 428.762 371.835 426.857 381.33C426.793 381.584 426.984 381.838 427.238 381.901C427.27 381.901 427.301 381.901 427.333 381.901C427.555 381.901 427.746 381.743 427.809 381.52C429.651 372.248 432.318 368.882 434.636 365.929C436.065 364.119 437.431 362.405 438.447 359.61C440.32 354.434 439.431 347.576 438.86 343.067C438.606 341.098 438.383 339.415 438.479 338.526C438.606 337.287 439.527 335.509 440.606 333.477C442.003 330.81 443.718 327.507 444.48 323.919C445.02 321.411 445.401 317.568 445.814 313.504C446.385 307.852 447.02 301.565 448.132 297.564C449.307 297.183 449.878 296.706 449.91 296.071C449.942 295.15 448.735 294.356 446.1 293.658C443.972 293.086 440.955 291.53 439.336 290.197C436.954 288.228 434.16 286.863 431.017 286.101C428.286 285.465 424.983 285.084 421.141 284.989C418.918 284.926 416.759 284.608 414.727 284.005C414.917 283.56 415.076 283.116 415.203 282.639C415.775 280.798 416.283 277.972 415.362 275.177C415.267 274.923 415.013 274.796 414.759 274.86C414.505 274.955 414.378 275.209 414.441 275.463C415.267 278.035 414.822 280.639 414.282 282.354C414.124 282.83 413.965 283.274 413.774 283.719C413.107 283.497 412.441 283.243 411.774 282.957C412.695 280.575 413.457 277.908 412.949 275.209C412.822 274.574 412.631 273.971 412.472 273.367C412.218 272.573 411.996 271.811 411.933 271.018C411.837 269.874 412.091 268.668 412.409 267.556C413.234 266.54 414.409 265.524 416.219 264.476C418.125 263.397 418.41 261.364 418.728 259.015C419.141 255.966 419.585 252.537 423.618 249.616C427.428 246.853 433.843 241.328 439.241 236.216C440.892 234.628 442.353 233.199 443.591 231.929C443.591 234.342 443.305 237.676 442.607 243.297C442.575 243.551 442.765 243.805 443.019 243.836C443.051 243.836 443.051 243.836 443.083 243.836C443.305 243.836 443.527 243.646 443.559 243.424C444.353 236.946 444.607 233.453 444.544 230.944C445.845 229.547 446.893 228.372 447.624 227.356C447.497 232.691 446.449 239.962 445.718 245.107C445.274 248.25 444.893 250.727 444.893 251.743C444.893 252.981 445.528 254.252 446.258 255.712C447.37 257.935 448.735 260.698 448.259 264.413C448.227 264.667 448.418 264.921 448.672 264.953C448.703 264.953 448.703 264.953 448.735 264.953C448.957 264.953 449.18 264.794 449.211 264.54C449.751 260.539 448.291 257.617 447.116 255.268C446.449 253.902 445.845 252.759 445.845 251.743C445.845 250.822 446.195 248.345 446.639 245.265C447.465 239.613 448.64 231.421 448.545 225.959C448.957 225.26 449.116 224.689 449.084 224.308C448.894 223.101 448.227 222.212 447.116 221.768C446.766 221.641 446.512 221.355 446.385 221.037C446.258 220.72 446.29 220.37 446.449 220.053C447.592 217.735 448.862 214.464 448.449 211.892C447.846 208.209 446.703 201.382 449.751 199.731C450.513 199.318 451.752 198.937 453.085 198.492C456.324 197.444 460.325 196.174 461.31 193.602C461.722 192.491 461.564 191.284 460.801 189.982C460.833 189.823 461.405 189.411 461.818 189.125C462.675 188.521 463.818 187.728 464.612 186.489L464.739 201.509C464.802 210.686 466.041 219.831 468.391 228.722L469.597 233.262C470.899 238.184 471.502 243.265 471.375 248.345L466.136 307.82C465.692 312.932 466.327 317.949 468.041 322.776C469.565 327.095 470.264 331.604 470.137 336.176L467.12 430.611C476.583 419.434 485.474 405.336 492.174 389.808C503.415 363.77 513.64 369.613 524.15 352.847C524.245 352.307 524.341 351.767 524.468 351.227C529.167 325.951 531.136 299.278 522.785 274.955C521.229 270.382 487.125 287.434 467.724 300.771L472.328 248.441C472.455 243.265 471.852 238.089 470.518 233.072L469.311 228.531C466.993 219.735 465.755 210.654 465.692 201.572L465.533 183.79C465.533 183.536 465.342 183.314 465.088 183.314H465.056C464.993 182.869 464.675 182.52 464.263 182.361C464.263 182.425 464.231 182.457 464.199 182.52C464.167 182.552 464.136 182.584 464.104 182.615C464.104 182.615 464.104 182.615 464.072 182.615C464.04 182.647 464.009 182.679 463.945 182.679C463.945 182.679 463.945 182.679 463.913 182.679C463.85 182.711 463.818 182.711 463.755 182.711C455.213 182.869 422.665 194.364 414.219 199.604C409.043 202.811 407.646 207.066 406.28 211.194C405.233 214.369 404.153 217.64 401.422 220.37C399.866 221.926 398.247 223.26 396.627 224.34C391.229 227.928 386.053 232.5 381.29 237.898C379.798 239.613 378.147 240.312 372.367 242.249C366.303 244.281 363.191 248.663 361.667 252.029C359.349 257.109 355.602 261.269 350.839 264.032C342.932 268.636 332.707 274.86 329.024 278.575C326.134 281.464 324.007 285.846 321.53 290.959C318.736 296.738 315.56 303.279 310.384 309.63C305.875 315.187 298.159 319.315 289.967 323.697C280.06 329 269.803 334.525 262.881 343.352C257.832 349.798 254.022 357.451 250.021 365.548C243.956 377.742 237.7 390.348 226.84 398.477C221.442 402.541 215.028 406.256 208.265 410.194C207.788 410.48 207.312 410.734 206.836 411.019C192.229 419.498 177.527 428.389 174.225 440.709H185.275C185.275 440.709 185.021 440.614 184.703 440.36H185.338C185.021 440.201 184.259 439.661 184.164 438.582C183.973 436.613 185.878 431.913 200.644 422.641C207.884 418.069 215.473 415.211 222.427 413.401C221.792 415.592 221.411 417.847 221.284 420.069C221.22 421.181 221.22 422.292 221.252 423.372C221.252 425.118 221.284 426.896 221.03 428.643C220.458 432.58 218.362 436.359 215.346 438.963C215.155 439.121 215.123 439.439 215.282 439.63C215.377 439.725 215.504 439.788 215.631 439.788C215.727 439.788 215.854 439.757 215.949 439.661C219.124 436.899 221.315 432.93 221.95 428.738C222.204 426.928 222.204 425.086 222.204 423.34C222.204 422.26 222.204 421.181 222.236 420.101C222.363 417.751 222.776 415.37 223.506 413.115C224.141 412.956 224.776 412.798 225.38 412.671C224.332 415.211 223.792 417.974 223.856 420.736C223.887 421.784 223.983 422.832 224.078 423.88C224.237 425.626 224.395 427.309 224.205 428.992C223.729 432.644 221.728 438.613 218.076 440.169C217.822 440.265 217.727 440.55 217.822 440.804C217.886 440.995 218.076 441.09 218.267 441.09C218.33 441.09 218.394 441.09 218.457 441.058C222.204 439.471 224.554 433.755 225.158 429.151C225.38 427.373 225.221 425.563 225.062 423.848C224.967 422.832 224.872 421.816 224.84 420.8C224.776 417.942 225.38 415.084 226.555 412.48C233.286 411.083 239.224 410.638 243.352 410.543C245.861 410.48 248.052 409.019 249.068 406.701C250.084 404.415 249.671 401.811 248.02 399.906C247.417 399.239 246.75 398.572 246.02 397.937C245.099 397.143 244.686 396.381 244.845 395.714C245.099 394.539 247.068 393.364 250.402 392.38C254.371 391.237 258.562 390.792 262.913 391.078C265.707 391.269 284.156 392.475 295.778 391.11C295.524 393.999 294.92 394.952 294.349 395.873C293.396 397.397 292.507 398.858 292.856 407.05C292.856 407.304 293.079 407.495 293.333 407.495C293.333 407.495 293.333 407.495 293.364 407.495C293.618 407.495 293.841 407.273 293.809 406.987C293.46 399.08 294.285 397.778 295.174 396.349C295.809 395.301 296.476 394.254 296.762 390.983C297.334 390.919 297.873 390.824 298.413 390.729C298.54 393.523 297.842 394.476 297.111 395.428C296.444 396.286 295.778 397.175 295.714 399.207C295.714 399.461 295.905 399.683 296.19 399.683C296.444 399.683 296.667 399.493 296.667 399.207C296.73 397.492 297.238 396.794 297.873 395.968C298.699 394.889 299.525 393.745 299.334 390.538C301.525 390.094 303.24 389.522 304.256 388.76C304.256 391.396 302.954 393.682 301.589 396.064C301.303 396.603 300.985 397.111 300.699 397.651C300.668 397.683 300.668 397.715 300.668 397.778C300.255 399.556 300.223 401.366 300.223 403.145C300.191 406.288 300.16 409.241 298 411.782C297.969 411.813 297.937 411.877 297.937 411.909C296.603 415.116 297.143 418.672 297.651 422.102C297.842 423.308 298.032 424.547 298.127 425.785C298.35 428.262 299.271 430.707 300.795 432.866C301.652 434.104 302.509 435.565 302.287 437.343C302.255 437.597 302.446 437.851 302.7 437.883C302.732 437.883 302.732 437.883 302.763 437.883C302.986 437.883 303.208 437.724 303.24 437.47C303.526 435.375 302.573 433.692 301.589 432.294C300.16 430.294 299.302 428.008 299.112 425.69C299.017 424.451 298.826 423.181 298.635 421.975C298.127 418.545 297.619 415.274 298.826 412.353C301.176 409.591 301.208 406.32 301.239 403.176C301.239 401.493 301.271 399.747 301.652 398.096C301.938 397.588 302.224 397.08 302.509 396.572C304.034 393.872 305.621 391.078 305.24 387.776C305.59 387.204 305.685 386.664 305.59 386.125C305.399 385.14 304.478 384.537 303.589 383.934C302.319 383.108 301.589 382.536 301.779 381.489C302.001 380.25 308.193 379.012 314.766 377.678C322.641 376.09 333.469 373.899 344.647 370.089C354.712 366.66 362.175 360.817 368.779 355.673C377.067 349.195 384.243 343.575 394.659 343.321C397.866 343.257 400.342 342.749 401.867 341.923C401.486 343.384 400.755 344.813 399.993 346.305C398.818 348.592 397.58 350.973 397.739 353.577C397.802 354.815 398.215 356.022 398.596 357.165C398.691 357.451 398.787 357.737 398.882 358.023C400.66 363.611 400.501 369.676 398.437 375.17C398.342 375.424 398.469 375.678 398.723 375.773C398.787 375.805 398.85 375.805 398.882 375.805C399.072 375.805 399.263 375.678 399.326 375.487C401.486 369.803 401.644 363.516 399.803 357.737C399.612 357.419 399.517 357.102 399.422 356.816ZM404.979 275.082C408.757 274.383 409.583 272.637 410.567 270.605C410.694 270.351 410.821 270.097 410.948 269.811C410.916 270.255 410.885 270.7 410.948 271.145C411.043 272.034 411.298 272.859 411.552 273.685C411.742 274.288 411.901 274.828 412.028 275.4C412.504 277.813 411.774 280.321 410.948 282.544C410.567 282.354 410.186 282.131 409.805 281.941C408.376 281.115 406.852 280.575 405.201 280.321C402.279 279.845 400.692 278.543 400.692 277.559C400.66 276.765 401.771 275.685 404.979 275.082Z" fill="#00112C"/>
<path d="M173.368 440.582C175.876 430.992 184.926 423.499 195.563 416.735C190.61 414.036 180.639 412.988 177.146 408.701C172.828 403.367 149.171 401.366 144.853 398.032C140.534 394.698 132.532 389.713 126.88 387.712C121.228 385.712 112.242 373.074 106.558 373.391C100.874 373.709 92.9037 382.727 85.2511 385.045C77.5985 387.363 68.9297 395.365 68.9297 395.365L53.9102 398.572C40.9547 401.493 18.4096 402.287 4.81906 404.669C4.24749 407.812 3.39014 411.083 2.15175 414.481C-7.91416 442.297 30.2537 440.963 33.9372 440.963C37.6524 440.963 39.2718 440.614 39.2718 440.614H173.304C173.368 440.646 173.368 440.614 173.368 440.582Z" fill="#00112C"/>
<path d="M194.737 395.524C203.342 396.762 212.202 398.064 219.505 402.224C219.568 402.255 219.632 402.287 219.695 402.287C222.045 400.795 224.3 399.271 226.364 397.715C237.033 389.713 243.257 377.202 249.258 365.104C251.163 361.293 253.1 357.388 255.164 353.672C255.164 353.672 255.164 353.672 255.133 353.672C231.794 342.4 210.55 329.698 195.055 320.426C181.972 312.615 173.335 307.439 170.636 307.439C166.413 307.439 161.046 312.742 156.315 317.441C153.299 320.426 150.441 323.252 148.631 323.856C148.281 323.983 147.9 324.078 147.519 324.205L147.297 324.268L135.135 312.424C130.912 308.328 126.562 304.073 121.323 301.088C118.687 299.596 115.861 298.421 113.098 297.278C109.828 295.912 106.43 294.515 103.445 292.578C100.048 290.355 97.1263 287.402 94.2684 284.576C92.3632 282.671 90.4262 280.702 88.2988 278.956C79.0267 271.176 71.7233 272.637 69.0243 273.621C63.7849 275.527 60.1333 280.004 56.6086 284.354C53.6237 288.037 50.5436 291.816 46.4792 294.071C44.0341 295.436 41.3986 296.611 38.8583 297.786C34.1587 299.913 29.3004 302.104 25.2995 305.502C19.5521 310.36 16.6942 317.156 14.4715 323.125C13.3918 326.047 11.8994 329.317 10.3117 332.81C7.7397 338.462 5.07239 344.337 3.45295 349.989C3.10366 350.751 2.81788 351.545 2.5321 352.339C0.118817 359.388 1.45247 366.628 3.04015 375.011C3.92926 379.71 4.81836 384.569 5.16765 389.903C5.16765 390.062 5.26291 390.221 5.42168 390.284C5.58045 390.348 5.73922 390.348 5.89798 390.284C6.21552 390.094 6.53306 389.935 6.85059 389.744C7.16813 389.586 7.51742 389.395 7.86671 389.205C9.86719 388.22 12.1217 387.236 14.535 386.188C22.8227 382.568 32.2218 378.504 34.4445 371.994C35.9052 367.676 36.8261 363.262 37.5881 359.324C38.5408 354.625 39.3346 350.592 40.827 348.751C40.8588 348.687 40.8905 348.623 40.9223 348.56C41.6209 345.512 48.5114 341.193 55.0527 338.272C60.1333 335.986 66.0394 336.652 70.5485 339.955C71.1835 340.399 71.7868 340.876 72.3902 341.352C74.1684 342.686 75.8196 343.956 77.2167 344.686C80.2651 346.528 82.9641 347.004 85.5679 347.48C88.267 347.957 90.8073 348.401 93.7286 350.275C105.827 362.627 120.021 371.423 135.866 376.408C140.025 377.646 144.471 378.313 148.758 378.948C156.95 380.187 164.73 381.33 170.985 386.093L171.684 386.696C175.685 390.189 179.813 393.777 185.497 394.063C188.513 394.635 191.689 395.079 194.737 395.524Z" fill="#00112C"/>
<path d="M472.552 11.3996C452.166 6.50954 436.099 0.92089 422.254 8.383V67.6989C436.099 60.2367 452.166 65.8254 472.552 70.7155C496.176 76.3676 518.182 64.2695 518.182 64.2695V4.95361C518.15 4.95361 496.176 17.0518 472.552 11.3996Z" fill="url(#paint1_linear)"/>
<path d="M482.491 58.9348C482.11 58.9348 481.76 58.8078 481.475 58.522L466.709 43.7566L462.518 51.7902C462.264 52.2983 461.692 52.6158 461.121 52.5523C460.549 52.4888 460.041 52.1078 459.882 51.5362L451.499 23.9105C451.34 23.4025 451.499 22.8626 451.848 22.4816C452.23 22.1006 452.769 21.9735 453.277 22.1323L480.903 30.5153C481.443 30.674 481.856 31.1821 481.919 31.7537C481.983 32.3252 481.665 32.8968 481.157 33.1508L473.123 37.3423L487.889 52.1078C488.143 52.3618 488.302 52.7428 488.302 53.1239C488.302 53.5049 488.143 53.8542 487.889 54.14L483.507 58.522C483.221 58.776 482.872 58.9348 482.491 58.9348ZM466.36 39.9461C466.741 39.9461 467.09 40.1049 467.376 40.3589L482.491 55.4737L484.841 53.1239L469.726 38.0091C469.408 37.6916 469.25 37.2471 469.313 36.7708C469.377 36.3262 469.662 35.9452 470.075 35.7229L476.743 32.23L455.024 25.657L461.597 47.3765L465.09 40.7082C465.312 40.2954 465.693 40.0414 466.138 39.9461C466.233 39.9461 466.296 39.9461 466.36 39.9461Z" fill="white"/>
<path d="M420.666 1.52588e-05C419.777 1.52588e-05 419.078 0.698596 419.078 1.5877V116.854V205.192V205.954C419.459 206.399 419.904 206.653 420.285 206.716C420.317 206.716 420.348 206.716 420.348 206.748C420.412 206.748 420.507 206.78 420.571 206.78C420.602 206.78 420.602 206.78 420.634 206.78C420.729 206.78 420.825 206.78 420.92 206.748C420.952 206.748 420.952 206.748 420.983 206.716C421.047 206.685 421.11 206.685 421.174 206.653C421.206 206.653 421.237 206.621 421.269 206.621C421.333 206.589 421.396 206.558 421.428 206.526C421.46 206.494 421.491 206.494 421.491 206.462C421.555 206.431 421.618 206.367 421.682 206.304L421.714 206.272C421.777 206.208 421.841 206.145 421.904 206.05C421.904 206.018 421.936 206.018 421.936 205.986C421.968 205.923 422 205.859 422.031 205.796C422.031 205.764 422.063 205.732 422.063 205.7C422.095 205.637 422.095 205.573 422.127 205.51C422.127 205.478 422.127 205.446 422.158 205.415C422.19 205.319 422.19 205.224 422.19 205.129V118.79V116.568V1.5877C422.254 0.698596 421.523 1.52588e-05 420.666 1.52588e-05Z" fill="#00112C"/>
<path d="M273.645 220.624C274.725 221.164 276.313 220.243 276.979 219.037C277.075 218.91 277.17 218.719 277.297 218.497C277.678 217.798 278.313 216.655 278.599 216.338C278.662 216.274 278.726 216.211 278.758 216.242C279.075 216.369 279.615 217.449 279.742 218.529L280.822 227.579C280.853 227.737 280.917 227.864 281.076 227.928C281.203 227.991 281.361 227.991 281.52 227.928C288.887 224.213 289.808 219.069 290.189 216.878C290.221 216.751 290.221 216.624 290.252 216.528C290.633 214.623 291.554 212.94 292.92 211.702C293.936 210.781 295.142 209.701 296.444 208.526C301.811 203.732 309.146 197.19 311.781 193.57C315.147 188.934 318.862 176.138 319.847 172.676C322.133 175.153 325.848 178.487 329.436 181.758C333.945 185.854 339.058 190.49 339.375 191.729C339.693 192.84 339.947 195.444 340.137 199.064C340.201 200.588 339.725 202.08 338.74 203.255C334.136 208.844 323.53 225.292 322.292 229.198C321.339 232.246 318.799 242.566 326.706 247.298C331.627 250.219 350.521 249.647 362.333 248.949C364.238 246.059 367.255 243.011 372.082 241.391C377.956 239.423 379.321 238.788 380.592 237.327C385.418 231.865 390.626 227.229 396.119 223.609C397.675 222.561 399.263 221.291 400.755 219.767C403.327 217.195 404.343 214.147 405.391 210.94C405.55 210.463 405.709 209.987 405.867 209.511L405.74 209.257C401.866 201.922 397.611 197.794 394.373 198.238C391.324 198.651 385.958 206.018 384.275 208.431C380.814 201.858 371.351 187.664 369.509 185.092C368.652 183.917 366.62 176.042 364.461 167.723C362.46 160.007 360.206 151.306 358.396 146.003C361.825 147.242 373.606 151.243 383.259 151.243C385.767 151.243 388.117 150.989 390.181 150.322C400.755 146.956 416.695 138.351 418.124 137.589C419.14 137.557 425.682 137.366 427.873 135.175C429.587 133.461 431.048 127.11 429.556 123.395C428.794 121.49 427.333 120.473 425.396 120.41C422.919 120.346 421.554 120.537 420.792 120.791L420.665 119.299C420.633 119.044 420.442 118.854 420.188 118.854C419.934 118.854 414.758 118.886 413.33 121.966C412.186 124.411 412.853 127.84 413.171 129.11C410.408 129.745 396.532 132.889 392.563 133.873C391.102 134.255 390.054 134.731 389.07 135.175C387.006 136.128 385.228 136.954 380.083 136.509C376.749 136.223 371.319 134 365.572 131.651C358.015 128.539 350.203 125.332 345.567 125.872C340.709 126.411 336.771 129.523 333.914 131.778C333.406 132.191 332.929 132.572 332.485 132.889C331.151 133.873 329.341 133.905 327.976 132.953L325.245 130.381C324.229 128.92 323.403 127.269 323.086 126.253C321.72 121.744 319.751 116.155 316.481 112.757C311.845 107.931 306.542 110.439 304.287 111.487C303.97 111.646 303.652 111.773 303.525 111.805C302.478 112.122 298.096 113.805 297.714 113.964C297.492 114.059 297.365 114.25 297.333 114.472C297.333 114.535 297.333 114.662 297.429 114.853C296.54 115.044 295.238 115.329 294.73 115.552C294.444 115.679 294.158 115.837 293.999 116.123C293.904 116.314 293.872 116.504 293.936 116.695C293.999 116.917 294.222 117.139 294.444 117.266C294.698 117.489 295.778 118.282 297.524 118.378C295.555 123.014 297.937 128.031 298.35 128.825C298.667 136.731 299.429 137.112 299.683 137.208C300.731 137.716 302.636 137.017 303.24 136.763C303.875 137.779 307.272 143.241 309.527 143.622C309.654 143.654 309.781 143.654 309.94 143.654C311.178 143.654 312.639 142.796 313.909 141.907C314.798 141.399 315.56 140.859 316.036 140.542C316.132 140.478 316.259 140.415 316.386 140.383C316.513 140.383 316.64 140.446 316.735 140.51C316.735 140.51 316.767 140.51 316.767 140.542L317.243 140.859L317.592 141.082C318.1 141.399 318.418 141.939 318.45 142.542C318.513 143.146 318.291 143.717 317.846 144.13L315.242 146.575L315.052 146.67C309.4 150.036 306.097 153.529 305.208 157.054C304.033 161.785 304.891 164.992 305.145 165.818C302.636 171.343 299.747 181.885 299.461 182.933L294.634 189.506C291.427 193.888 287.807 201.255 285.426 206.113C284.251 208.526 283.235 210.59 282.886 211.003C282.504 211.448 281.869 211.321 280.853 211.098C279.901 210.876 278.821 210.622 277.805 211.098C275.836 212.083 275.042 212.908 273.486 216.496C272.28 219.418 273.074 220.339 273.645 220.624ZM357.951 217.481C358.332 217.322 359.666 216.846 361.73 217.354C362.714 217.608 365.509 220.434 368.462 223.451C371.351 226.404 374.59 229.674 377.575 232.119C373.637 232.183 366.366 232.246 361 231.961C355.252 231.643 351.315 231.294 349.663 231.167C351.759 228.15 357.221 218.751 357.951 217.481ZM295.047 116.536C295.015 116.536 295.015 116.504 294.984 116.504C295.047 116.472 295.079 116.441 295.142 116.441C295.714 116.187 297.81 115.774 298.572 115.647C298.762 115.615 298.921 115.456 298.953 115.266C298.985 115.075 298.921 114.885 298.731 114.758C298.699 114.726 298.635 114.694 298.604 114.662C299.842 114.186 303.017 112.948 303.843 112.726C304.065 112.662 304.351 112.535 304.764 112.344C306.828 111.36 311.686 109.074 315.846 113.424C318.958 116.663 320.895 122.156 322.228 126.538C322.546 127.554 323.308 129.11 324.292 130.571C323.308 131.143 322.451 130.857 321.911 130.666C321.561 130.539 321.18 130.412 320.926 130.73C320.926 130.73 320.863 130.762 320.704 130.73C320.482 130.698 320.26 130.666 320.037 130.603C319.402 130.476 318.926 130.381 318.608 130.603C317.561 130.095 316.64 129.174 316.163 128.221C316.83 126.951 316.894 125.49 316.322 123.998C315.846 122.728 314.957 121.68 314.004 121.013C313.972 120.981 313.941 120.981 313.909 120.95C313.147 120.473 312.321 120.219 311.559 120.378C310.702 120.537 309.336 121.331 309.209 124.601C308.574 124.062 308.161 123.268 307.971 122.791C307.939 122.696 307.844 122.601 307.749 122.537C305.621 121.49 305.78 119.235 305.939 118.314C305.97 118.06 305.843 117.838 305.621 117.711C305.399 117.616 305.113 117.679 304.986 117.87C303.938 119.299 301.779 119.902 300.826 119.965C302.223 118.632 302.795 116.663 302.827 116.568C302.89 116.377 302.795 116.155 302.636 116.028C302.478 115.901 302.223 115.901 302.065 116.028C297.746 118.822 295.142 116.631 295.047 116.536ZM317.116 139.272L316.354 135.493C316.29 135.334 316.068 135.366 316.036 135.525C315.846 136.541 314.639 139.557 312.893 141.463C311.75 142.225 310.511 142.86 309.654 142.733C308.701 142.574 307.082 140.732 305.78 138.986C306.224 138.446 307.209 137.239 307.844 136.35C308.003 136.128 307.971 135.842 307.749 135.683C307.526 135.525 307.241 135.556 307.082 135.779C306.51 136.541 305.685 137.589 305.208 138.192C304.637 137.398 304.192 136.668 303.938 136.223C303.748 135.874 303.335 135.747 302.986 135.906C302.192 136.287 300.731 136.668 300.128 136.446C299.747 135.842 299.397 132.032 299.27 128.729C299.27 128.666 299.239 128.571 299.207 128.507C299.207 128.475 298.032 126.348 297.714 123.585C297.524 121.648 297.778 119.902 298.54 118.409C299.366 118.314 300.318 118.06 301.334 117.552C301.017 118.187 300.541 118.949 299.905 119.521C299.556 119.838 299.429 120.124 299.493 120.442C299.524 120.6 299.683 120.886 300.16 120.981C301.08 121.172 303.271 120.632 304.827 119.394C304.827 120.632 305.24 122.379 307.082 123.395C307.558 124.538 308.32 125.427 309.178 125.872C309.273 126.03 309.4 126.126 309.59 126.126C309.59 126.126 309.59 126.126 309.622 126.126C309.876 126.126 310.098 125.903 310.067 125.618C309.971 123.141 310.543 121.617 311.654 121.394C311.94 121.331 312.226 121.363 312.543 121.458C311.527 122.283 311.178 123.808 311.019 124.982C310.988 125.173 311.051 125.395 311.178 125.522C311.305 125.681 311.496 125.776 311.718 125.776C311.877 125.776 312.099 125.808 312.194 125.935C312.385 126.157 312.226 126.824 312.099 127.3C312.067 127.427 312.035 127.586 312.004 127.713C311.972 127.904 312.035 128.126 312.162 128.285C312.289 128.412 312.448 128.507 312.639 128.507C312.67 128.507 312.67 128.507 312.702 128.507C313.369 128.444 313.877 127.999 314.131 127.332C314.449 126.38 314.226 125.205 313.56 124.538C313.496 124.474 313.464 124.443 313.401 124.411C313.369 124.411 313.369 124.379 313.337 124.379C313.306 124.347 313.274 124.316 313.242 124.316C313.21 124.316 313.179 124.284 313.179 124.284C313.147 124.252 313.115 124.252 313.083 124.22C313.051 124.22 313.02 124.189 312.988 124.189C312.956 124.189 312.924 124.157 312.893 124.157C312.861 124.157 312.829 124.125 312.797 124.125C312.766 124.125 312.734 124.093 312.702 124.093C312.67 124.093 312.639 124.093 312.607 124.062C312.575 124.062 312.543 124.062 312.512 124.062C312.48 124.062 312.448 124.062 312.416 124.062C312.385 124.062 312.353 124.062 312.321 124.062C312.289 124.062 312.258 124.062 312.226 124.062H312.194C312.416 123.172 312.829 122.347 313.56 122.029C314.29 122.569 314.988 123.458 315.369 124.443C315.782 125.49 316.354 128.158 313.083 130.063C312.861 130.19 312.766 130.476 312.924 130.73C313.02 130.889 313.179 130.952 313.337 130.952C313.433 130.952 313.496 130.92 313.591 130.889C314.385 130.412 315.052 129.872 315.528 129.237C316.195 130.349 317.37 131.301 318.577 131.778C318.735 131.841 318.926 131.809 319.053 131.714C319.116 131.682 319.148 131.619 319.18 131.555C319.339 131.587 319.624 131.619 319.815 131.651C320.037 131.682 320.291 131.746 320.545 131.778C320.895 131.841 321.212 131.778 321.434 131.619C321.466 131.619 321.53 131.651 321.593 131.682C321.943 131.809 322.451 131.968 323.086 131.968C323.181 131.968 323.276 131.968 323.371 131.968L317.116 139.272Z" fill="#00112C"/>
<path d="M368.97 183.854C368.874 183.6 368.779 183.282 368.652 182.965C356.967 176.455 348.584 175.852 345.44 176.519C344.837 176.646 344.297 177.027 343.979 177.567C342.836 179.377 340.01 185.314 338.994 191.03C339.185 191.316 339.343 191.538 339.375 191.697C339.407 191.824 339.439 191.951 339.47 192.078C340.296 186.14 343.344 179.758 344.519 177.884C344.773 177.503 345.154 177.217 345.599 177.122C348.711 176.455 357.157 177.122 368.97 183.854Z" fill="url(#paint2_linear)"/>
<path d="M330.548 132.889C330.643 134.89 328.325 144.098 328.325 144.098C328.325 144.098 319.117 143.431 317.783 142.32C317.783 142.32 312.798 147.528 310.448 149.306C308.13 151.084 322.102 149.306 328.897 144.543C332.104 142.288 340.011 135.017 339.788 127.459" fill="url(#paint3_linear)"/>
<path d="M337.598 162.738C339.217 162.007 340.773 161.277 342.234 160.547C345.123 164.23 345.25 169.723 341.98 173.153C338.36 176.423 332.93 174.105 330.104 171.057C327.468 167.532 327.817 162.039 331.469 159.308C332.39 158.641 333.501 158.197 334.549 157.625C334.549 157.625 334.549 157.625 334.517 157.625C335.502 159.308 336.867 161.023 337.598 162.738C336.74 163.119 335.883 163.5 335.057 163.912C333.755 164.547 333.343 166.199 334.009 167.628C334.676 168.961 336.232 169.596 337.502 169.025C338.868 168.421 339.503 166.834 338.836 165.405C338.455 164.484 337.979 163.627 337.598 162.738Z" fill="white"/>
<path d="M328.293 146.829C328.261 146.829 328.229 146.829 328.229 146.829C328.007 146.797 327.816 146.638 327.753 146.448L327.467 145.622L326.641 145.4C326.419 145.337 326.26 145.178 326.229 144.955C326.197 144.733 326.26 144.511 326.451 144.384L327.149 143.876L327.118 143.018C327.118 142.796 327.213 142.606 327.435 142.479C327.657 142.352 327.88 142.383 328.038 142.51L328.737 143.018L329.531 142.733C329.753 142.669 329.975 142.701 330.134 142.86C330.293 143.018 330.357 143.241 330.293 143.463L330.039 144.289L330.579 144.955C330.706 145.146 330.738 145.368 330.642 145.559C330.547 145.749 330.357 145.876 330.134 145.876H329.277L328.801 146.575C328.674 146.734 328.483 146.829 328.293 146.829ZM326.927 144.797L327.657 145.019C327.848 145.082 327.975 145.21 328.038 145.4L328.293 146.13L328.737 145.495C328.832 145.337 329.023 145.241 329.213 145.241H329.975L329.499 144.638C329.372 144.479 329.34 144.289 329.404 144.098L329.626 143.368L328.896 143.622C328.705 143.685 328.515 143.654 328.356 143.558L327.721 143.114L327.753 143.876C327.753 144.066 327.657 144.257 327.53 144.352L326.927 144.797Z" fill="white"/>
<path d="M318.131 141.367C318.068 141.367 317.972 141.336 317.941 141.304C317.814 141.177 317.782 140.986 317.909 140.859L325.816 131.587C325.943 131.46 326.133 131.428 326.26 131.555C326.387 131.682 326.419 131.873 326.292 132L318.385 141.272C318.322 141.336 318.227 141.367 318.131 141.367Z" fill="white"/>
<path d="M334.549 157.625C333.596 155.942 332.771 154.259 331.723 152.545C333.247 151.814 334.739 151.084 336.39 150.354C337.089 152.005 338.359 153.656 339.28 155.402C337.724 156.133 336.041 156.863 334.549 157.625Z" fill="white"/>
<path d="M350.901 165.945C351.6 167.31 350.965 169.025 349.695 169.596C348.425 170.168 346.742 169.533 346.107 168.167C345.472 166.802 345.98 165.087 347.281 164.516C348.583 163.944 350.235 164.579 350.901 165.945Z" fill="white"/>
<path d="M299.144 125.649C299.017 125.649 298.89 125.618 298.826 125.522C298.54 125.236 298.382 124.792 298.477 124.347C298.54 124.03 298.667 123.681 298.953 123.395C299.588 122.601 300.604 122.188 301.621 122.283C302.129 122.315 303.399 122.76 303.43 123.522C303.462 123.839 303.303 124.252 302.446 124.411C301.081 124.697 300.763 124.855 299.398 125.618C299.302 125.649 299.207 125.649 299.144 125.649ZM301.303 123.204C300.668 123.204 300.033 123.49 299.62 123.998C299.461 124.189 299.398 124.347 299.366 124.506C300.446 123.903 300.922 123.744 302.224 123.458C302.033 123.331 301.716 123.236 301.493 123.204C301.43 123.204 301.366 123.204 301.303 123.204Z" fill="#00112C"/>
<path d="M302.995 128.127C303.193 127.981 303.032 127.428 302.635 126.892C302.239 126.356 301.758 126.04 301.561 126.186C301.363 126.332 301.524 126.885 301.921 127.421C302.317 127.957 302.798 128.273 302.995 128.127Z" fill="#00112C"/>
<path d="M290.601 247.425C290.601 247.393 290.601 247.393 290.601 247.361C290.125 245.932 289.267 244.63 288.378 243.836C287.648 243.17 286.886 242.82 286.124 242.63C285.997 242.408 285.806 242.217 285.584 242.09C284.79 241.645 283.71 242.058 282.377 242.535C281.837 242.725 281.297 242.947 280.694 243.106C280.44 243.17 280.186 243.201 279.963 243.265C279.074 243.424 278.28 243.995 277.677 244.916C276.534 246.694 276.121 249.584 276.661 252.124L271.612 254.22C271.485 254.252 271.39 254.347 271.358 254.474C271.295 254.601 271.295 254.728 271.358 254.823L273.898 260.983C273.962 261.11 274.057 261.206 274.153 261.237C274.216 261.269 274.28 261.269 274.343 261.269C274.407 261.269 274.47 261.269 274.534 261.237C274.597 261.206 280.408 258.792 286.759 255.712C287.172 255.522 287.553 255.299 287.902 255.077C287.934 255.077 287.965 255.045 287.997 255.045C288.473 254.791 288.918 254.41 289.331 253.934C290.442 252.791 290.855 251.584 291.014 250.6C291.014 250.505 291.045 250.441 291.045 250.346V250.314C291.077 250.124 291.077 249.901 291.077 249.711C291.077 249.679 291.077 249.679 291.077 249.647C290.982 248.917 290.823 248.155 290.601 247.425Z" fill="white"/>
<path d="M286.346 218.084C287.203 222.593 282.186 227.007 280.313 227.451C280.249 227.451 280.217 227.483 280.186 227.515C279.265 227.864 278.249 228.087 277.137 228.087C277.01 228.087 276.883 228.15 276.788 228.245L272.914 232.31L269.707 228.182L269.739 228.118C270.787 226.943 271.612 225.864 272.216 224.879C272.279 224.784 272.311 224.625 272.279 224.53C272.247 224.403 272.152 224.308 272.057 224.244C271.962 224.181 269.358 222.657 271.104 219.45C272.914 216.147 275.042 216.369 275.137 216.401L276.883 216.655C276.344 217.894 275.772 219.069 275.169 219.862C275.01 220.085 275.042 220.37 275.264 220.529C275.486 220.688 275.772 220.656 275.931 220.434C276.883 219.164 277.709 217.195 278.503 215.29C279.233 213.543 280.122 211.384 280.694 211.162C281.043 211.035 281.932 210.781 282.98 211.352C283.996 211.924 285.457 213.607 286.346 218.084Z" fill="white"/>
<path d="M269.009 287.879C270.533 289.847 271.041 296.484 270.406 306.074C269.835 314.647 268.66 321.284 268.247 321.887C268.215 321.919 268.215 321.95 268.184 321.982C267.549 323.125 265.135 324.808 262.023 325.697C259.134 326.491 256.435 326.332 254.434 325.221C254.117 324.268 254.434 319.632 254.688 315.854C255.133 309.471 255.387 305.216 254.752 303.946C254.148 302.739 252.593 301.914 250.084 301.501C244.654 300.612 236.112 301.882 234.048 303.946C233.509 304.486 233.032 305.724 232.683 307.629C231.699 312.901 231.445 323.379 231.889 338.907C232.207 349.513 223.411 374.947 222.268 376.916C217.727 379.075 211.916 377.329 209.312 375.709C208.169 375.011 207.852 374.471 207.852 374.28C207.852 373.55 209.217 368.374 210.678 362.881C212.837 354.688 215.536 344.496 216.235 339.796C217.187 333.382 215.06 322.236 213.154 312.361C211.821 305.311 210.551 298.675 210.836 295.627L211.059 295.182C211.217 295.214 211.376 295.246 211.535 295.277L242.209 287.688C242.273 287.942 242.527 288.101 242.781 288.037C247.766 286.958 259.483 285.021 265.58 286.259C267.199 286.577 268.406 287.085 269.009 287.879Z" fill="white"/>
<path d="M297.015 309.439C296.792 308.582 294.823 308.931 294.093 309.09L286.917 257.744L287.076 257.713C287.266 257.681 287.393 257.49 287.361 257.332L287.107 255.395C286.822 255.458 286.536 255.49 286.218 255.49C285.742 255.49 285.234 255.395 284.726 255.236C284.154 255.045 283.646 254.601 283.17 253.997L283.869 257.967C283.9 258.157 284.091 258.284 284.281 258.252L284.44 258.221L293.553 309.249C292.95 309.408 292.41 309.63 292.029 309.852C291.426 310.201 291.14 310.551 291.235 310.9C291.331 311.249 291.712 311.44 292.41 311.44C292.442 311.44 292.474 311.44 292.505 311.44C292.918 311.44 293.395 311.376 293.903 311.281L294.157 312.615C294.188 312.742 294.284 312.837 294.411 312.805C294.538 312.773 294.633 312.678 294.601 312.551L294.411 311.186C294.792 311.059 297.269 310.392 297.015 309.439ZM291.839 310.71C291.997 310.519 292.632 310.138 293.617 309.852L293.744 310.646C292.791 310.837 292.061 310.805 291.839 310.71ZM294.315 310.519L294.188 309.725C295.332 309.471 296.125 309.503 296.379 309.598C296.189 309.789 295.459 310.233 294.315 310.519Z" fill="#00112C"/>
<path d="M282.345 242.566C283.52 242.122 284.441 241.772 285.203 241.963L284.473 236.628C286.568 239.137 290.633 243.424 293.777 243.424C294.126 243.424 294.475 243.36 294.793 243.265C295.777 242.915 296.222 242.09 295.968 241.169C295.396 239.2 291.649 236.819 290.506 236.152C289.363 235.485 285.552 233.294 283.615 233.707L283.298 233.77C282.853 233.485 282.313 233.358 281.742 233.485C280.535 233.707 279.773 234.914 279.995 236.12L281.234 243.011C281.583 242.852 281.964 242.693 282.345 242.566ZM293.141 240.026C294.285 241.074 294.38 241.582 294.412 241.677C294.38 241.709 294.316 241.741 294.221 241.772C292.252 242.471 288.315 238.788 285.616 235.549C287.743 236.247 291.077 238.089 293.141 240.026Z" fill="#00112C"/>
<path d="M448.703 267.302C448.449 267.239 448.195 267.398 448.131 267.652C447.337 270.478 447.115 272.224 446.734 275.241C446.702 275.495 446.893 275.749 447.147 275.781C447.178 275.781 447.178 275.781 447.21 275.781C447.433 275.781 447.655 275.59 447.687 275.368C448.068 272.288 448.322 270.668 449.084 267.906C449.084 267.62 448.957 267.366 448.703 267.302Z" fill="#00112C"/>
<path d="M232.08 209.892C231.985 209.892 231.889 209.86 231.794 209.796C231.572 209.638 231.54 209.352 231.699 209.13C232.493 208.082 234.715 206.812 236.24 207.32C236.494 207.415 236.621 207.669 236.525 207.923C236.43 208.177 236.176 208.304 235.922 208.209C234.811 207.828 233.001 208.939 232.461 209.701C232.366 209.828 232.239 209.892 232.08 209.892Z" fill="#00112C"/>
<path d="M238.78 221.164C238.685 221.164 238.59 221.164 238.494 221.164C238.24 221.164 238.018 220.942 238.05 220.656C238.05 220.402 238.272 220.18 238.558 220.212C239.193 220.243 241.035 220.116 241.638 220.021C241.892 219.989 242.146 220.148 242.178 220.402C242.21 220.656 242.051 220.91 241.797 220.942C241.194 221.037 239.638 221.164 238.78 221.164Z" fill="#00112C"/>
<path d="M242.202 210.671C242.459 210.614 242.541 209.999 242.385 209.297C242.23 208.595 241.896 208.072 241.639 208.129C241.382 208.186 241.3 208.801 241.455 209.503C241.611 210.205 241.945 210.728 242.202 210.671Z" fill="#00112C"/>
<path d="M235.85 212.576C236.107 212.52 236.189 211.904 236.034 211.202C235.878 210.5 235.544 209.977 235.287 210.034C235.03 210.091 234.948 210.706 235.104 211.408C235.259 212.11 235.594 212.633 235.85 212.576Z" fill="#00112C"/>
<path d="M204.709 386.887C210.329 390.729 210.996 390.38 211.314 390.221C211.346 390.221 211.346 390.189 211.377 390.189C211.409 390.284 211.441 390.475 211.409 390.634C211.409 390.792 211.441 390.919 211.568 391.015C211.695 391.11 214.457 393.587 222.682 395.238C223.729 395.46 224.714 395.524 225.635 395.524C227.191 395.524 228.556 395.27 229.667 394.92C230.302 394.349 230.938 393.745 231.541 393.11C229.858 394 226.81 395.079 222.84 394.285C215.982 392.92 213.028 390.951 212.362 390.411C212.362 390.062 212.266 389.586 211.885 389.332C211.695 389.205 211.377 389.109 210.933 389.3C210.583 389.3 208.996 388.633 205.249 386.061C204.773 385.744 204.36 385.235 204.455 384.886C205.408 382.155 207.059 378.758 208.392 376.154C208.138 375.963 207.884 375.773 207.63 375.519C206.265 378.154 204.518 381.711 203.534 384.537C203.248 385.49 203.947 386.347 204.709 386.887Z" fill="white"/>
<path d="M227.731 386.029C230.716 387.268 233.129 388.284 232.939 391.713C233.256 391.364 233.574 391.015 233.86 390.665C233.51 387.427 230.779 386.283 228.112 385.172C225.064 383.902 221.92 382.6 221.222 378.377C220.904 378.472 220.618 378.536 220.301 378.599C221.095 383.235 224.619 384.696 227.731 386.029Z" fill="white"/>
<path d="M290.602 247.425C290.602 247.393 290.602 247.393 290.571 247.361C290.094 245.932 289.237 244.63 288.348 243.836C287.618 243.17 286.856 242.82 286.093 242.63C285.966 242.407 285.776 242.217 285.554 242.122C284.76 241.677 283.68 242.09 282.346 242.566C281.807 242.757 281.267 242.979 280.664 243.138C280.41 243.201 280.155 243.233 279.933 243.297C279.044 243.455 278.25 244.027 277.647 244.948C276.504 246.726 276.091 249.616 276.631 252.156L272.947 253.68C272.884 253.585 272.82 253.521 272.757 253.49C272.63 253.426 272.503 253.426 272.376 253.49C272.281 253.521 266.343 255.808 258.087 256.792C253.482 258.38 248.815 259.015 244.401 259.015C232.493 259.015 222.205 254.506 218.331 252.569C218.109 252.442 218.014 252.156 218.109 251.934C218.236 251.711 218.522 251.616 218.744 251.711C224.333 254.506 243.48 262.698 261.23 254.474C263.136 253.394 264.882 252.092 266.438 250.536C269.867 247.139 271.709 243.201 272.249 240.852C272.916 237.994 272.185 236.597 271.646 236.025L273.487 233.707C273.614 233.548 273.614 233.294 273.487 233.104L273.455 233.072L277.298 229.039C278.377 229.007 279.457 228.785 280.473 228.372C282.982 227.769 288.157 222.752 287.205 217.894C286.443 213.988 285.141 211.479 283.299 210.463C281.902 209.701 280.695 210.019 280.219 210.209C279.298 210.559 278.568 212.21 277.488 214.877C277.361 215.163 277.266 215.449 277.139 215.703L275.138 215.417C275.011 215.385 272.281 215.036 270.153 218.973C268.407 222.149 270.217 224.086 271.074 224.752C270.534 225.578 269.836 226.467 268.978 227.42C268.946 227.388 268.883 227.388 268.819 227.388C268.692 227.388 268.565 227.42 268.47 227.515C260.595 234.755 250.053 241.709 246.941 242.344C246.243 242.471 245.544 242.534 244.814 242.534C244.464 242.566 244.147 242.566 243.798 242.566C239.193 242.566 234.811 240.788 230.874 239.169C227.349 237.74 224.047 236.374 221.316 236.66C221.062 236.692 220.808 236.501 220.808 236.247C220.808 235.993 220.967 235.739 221.221 235.739C224.174 235.453 227.603 236.851 231.223 238.311C234.843 239.804 238.876 241.423 243.035 241.614C242.273 236.374 240.908 231.579 238.59 228.468C237.923 227.579 236.939 227.039 235.859 226.912L236.081 226.118C236.971 226.308 237.764 226.404 238.495 226.404C239.384 226.404 240.114 226.277 240.686 226.15C242.115 225.832 243.353 225.133 243.671 224.498C244.433 223.038 245.989 212.908 243.893 206.05C244.02 206.05 244.147 205.986 244.242 205.859C244.401 205.637 244.369 205.351 244.147 205.192C243.925 205.033 243.702 204.938 243.48 204.843C243.067 203.827 242.559 202.906 241.924 202.112C241.956 202.08 241.988 202.049 242.019 202.017C242.083 201.953 242.146 201.89 242.178 201.826C242.21 201.795 242.242 201.763 242.273 201.731C242.337 201.668 242.369 201.604 242.4 201.541C242.432 201.509 242.432 201.477 242.464 201.445C242.527 201.35 242.591 201.255 242.623 201.159C242.623 201.159 242.623 201.128 242.654 201.128C242.686 201.064 242.718 200.969 242.75 200.905C242.75 200.874 242.781 200.842 242.781 200.81C242.813 200.747 242.813 200.683 242.845 200.62C242.845 200.588 242.845 200.588 242.877 200.556C242.908 200.461 242.908 200.366 242.908 200.27C242.908 200.048 242.877 199.794 242.781 199.54C242.718 199.35 242.591 199.159 242.4 198.968C242.21 198.778 241.988 198.556 241.67 198.365C240.971 197.952 240.178 197.635 239.289 197.444C236.621 196.809 233.255 197.127 230.175 198.397C227.603 199.445 225.603 200.969 224.396 202.747C223.888 203.477 223.539 204.271 223.316 205.065C222.935 206.526 223.189 209.86 223.539 213.543C223.57 214.051 223.634 214.56 223.697 215.068C223.824 216.211 223.92 217.386 224.015 218.497C224.015 218.656 224.047 218.783 224.047 218.942C224.047 218.973 224.047 219.037 224.047 219.069C224.047 219.227 224.079 219.386 224.079 219.545V219.577C224.174 221.006 224.237 222.276 224.237 223.292C215.664 223.419 218.236 228.214 215.918 229.897C213.536 231.611 207.313 233.358 211.822 240.026C211.822 240.026 197.183 283.878 208.583 287.212C208.583 287.212 207.122 293.118 208.805 294.325C209.218 294.611 210.234 294.928 211.631 295.214L242.305 287.625C242.369 287.879 242.623 288.038 242.877 287.974C249.132 286.609 266.025 283.941 269.042 287.815C270.566 289.784 271.074 296.42 270.439 306.01C269.867 314.584 268.692 321.22 268.28 321.823C268.248 321.855 268.248 321.887 268.216 321.919C267.549 323.062 265.168 324.745 262.056 325.602C259.166 326.396 256.467 326.237 254.467 325.126C254.149 324.173 254.467 319.537 254.721 315.758C255.165 309.376 255.419 305.121 254.784 303.851C254.181 302.644 252.625 301.819 250.117 301.406C244.687 300.485 236.145 301.787 234.081 303.851C232.017 305.915 231.318 317.664 231.953 338.843C232.207 346.75 227.381 362.849 224.428 371.359C224.333 371.359 224.237 371.391 224.174 371.423C218.903 374.788 211.059 371.772 208.837 370.152C209.345 368.088 210.043 365.516 210.742 362.817C212.901 354.625 215.6 344.432 216.299 339.732C217.251 333.318 215.124 322.173 213.219 312.297C211.885 305.248 210.615 298.611 210.901 295.563C210.932 295.309 210.742 295.055 210.456 295.055C210.202 295.023 209.948 295.214 209.948 295.5C209.662 298.675 210.869 305.089 212.298 312.488C214.171 322.268 216.267 333.35 215.346 339.605C214.648 344.241 211.98 354.434 209.789 362.595C207.979 369.486 206.932 373.423 206.932 374.249C206.932 374.947 207.63 375.646 208.36 376.154C207.027 378.726 205.344 382.155 204.423 384.886C204.296 385.235 204.741 385.744 205.217 386.061C208.964 388.633 210.551 389.3 210.901 389.3C211.345 389.078 211.695 389.205 211.853 389.332C212.234 389.586 212.298 390.094 212.33 390.411C212.996 390.919 215.981 392.888 222.808 394.285C226.778 395.079 229.826 393.999 231.509 393.11C231.985 392.634 232.43 392.158 232.874 391.65C233.065 388.22 230.683 387.236 227.667 385.966C224.555 384.664 221.03 383.203 220.205 378.535C221.094 378.345 221.983 378.059 222.808 377.646C222.872 377.615 222.935 377.583 222.967 377.519C223.602 376.725 226.238 369.295 228.429 361.801C230.524 354.593 233.033 344.75 232.843 338.812C232.017 311.44 233.636 305.597 234.716 304.549C235.542 303.724 237.923 302.93 240.971 302.485C244.115 302.009 247.481 301.977 249.894 302.39C252.054 302.739 253.419 303.406 253.863 304.327C254.435 305.47 254.022 311.186 253.705 315.758C253.292 321.411 253.101 324.904 253.609 325.793C253.641 325.856 253.705 325.92 253.768 325.951C254.244 326.237 254.753 326.459 255.292 326.618C254.657 330.206 254.149 334.715 255.388 338.748L255.483 339.034L255.769 339.097C255.896 339.129 257.42 339.351 259.23 339.351C261.262 339.351 263.707 339.034 264.945 337.764C266.247 336.43 266.628 336.525 267.041 336.652C267.264 336.716 267.549 336.779 267.899 336.748C271.264 333.763 275.011 331.191 278.854 328.841C281.457 326.491 281.489 325.793 281.521 325.507C281.553 324.395 281.045 322.903 279.806 322.046C279.044 321.506 277.774 321.061 275.932 321.823C275.615 321.95 275.202 322.173 274.726 322.427C272.725 323.475 269.486 325.189 267.772 323.824C268.28 323.379 268.661 322.935 268.915 322.522C269.677 321.379 270.788 313.028 271.233 306.391C271.646 300.548 271.963 290.324 269.645 287.339C265.898 282.544 246.274 286.386 242.972 287.085C243.004 286.926 242.972 286.799 242.972 286.64L242.305 283.02C242.305 283.02 244.877 281.719 244.877 278.702C244.877 277.114 244.337 275.273 243.829 273.844C244.845 274.034 245.893 274.129 246.909 274.129C247.957 274.129 249.005 274.034 250.053 273.78C253.101 273.082 258.341 271.176 262.818 269.176C266.628 267.461 271.296 265.016 272.376 263.047L275.202 261.968C275.456 261.872 275.551 261.618 275.488 261.364L275.329 260.92C277.266 260.094 281.743 258.126 286.57 255.808C286.983 255.617 287.364 255.395 287.713 255.172C287.745 255.172 287.776 255.141 287.808 255.141C288.284 254.887 288.729 254.506 289.142 254.029C290.253 252.886 290.666 251.68 290.825 250.695C290.825 250.6 290.856 250.536 290.856 250.441C290.856 250.441 290.856 250.441 290.856 250.409C290.888 250.219 290.888 249.997 290.888 249.806C290.888 249.774 290.888 249.774 290.888 249.743C290.984 248.917 290.825 248.155 290.602 247.425ZM269.709 228.118C270.756 226.943 271.582 225.864 272.185 224.879C272.249 224.784 272.281 224.625 272.249 224.53C272.217 224.403 272.122 224.308 272.027 224.244C271.9 224.181 269.327 222.657 271.074 219.45C272.884 216.147 275.011 216.369 275.107 216.401L276.853 216.655C276.313 217.894 275.742 219.069 275.138 219.862C274.98 220.085 275.011 220.37 275.234 220.529C275.456 220.688 275.742 220.656 275.9 220.434C276.853 219.164 277.679 217.195 278.473 215.29C279.203 213.543 280.092 211.384 280.664 211.162C280.886 211.067 281.394 210.94 281.997 211.035C281.045 215.29 279.012 219.577 278.981 219.608C278.854 219.831 278.981 220.116 279.203 220.243C279.266 220.275 279.33 220.275 279.393 220.275C279.584 220.275 279.743 220.18 279.838 219.989C279.933 219.799 281.902 215.607 282.886 211.321C282.886 211.321 282.918 211.321 282.918 211.352C283.299 211.543 283.712 211.892 284.125 212.4C284.061 213.004 283.49 217.005 281.203 220.942C281.076 221.164 281.14 221.45 281.362 221.609C281.426 221.641 281.521 221.672 281.616 221.672C281.775 221.672 281.934 221.577 282.029 221.45C283.839 218.338 284.601 215.226 284.919 213.607C285.204 214.147 285.49 214.814 285.744 215.607C285.712 216.433 285.49 219.513 283.14 222.53C282.982 222.752 283.013 223.038 283.236 223.197C283.331 223.26 283.426 223.292 283.521 223.292C283.648 223.292 283.807 223.228 283.902 223.101C285.331 221.26 286.03 219.45 286.379 218.021C286.379 218.052 286.379 218.084 286.411 218.116C287.268 222.625 282.251 227.039 280.378 227.483C280.314 227.483 280.283 227.515 280.251 227.547C279.33 227.896 278.314 228.118 277.202 228.118C277.075 228.118 276.948 228.182 276.853 228.277L272.979 232.342L269.772 228.214L269.709 228.118ZM242.369 204.716C242.115 204.716 241.861 204.779 241.607 204.843C240.59 205.097 239.606 205.827 239.32 206.494C238.907 207.478 238.812 210.209 241.448 213.639C241.988 214.337 242.083 215.353 241.638 216.147L240.686 217.894C240.559 218.116 240.654 218.402 240.876 218.529C240.94 218.56 241.035 218.592 241.098 218.592C241.257 218.592 241.448 218.497 241.511 218.338L242.464 216.592C243.099 215.449 242.972 214.051 242.178 213.035C239.701 209.86 239.892 207.51 240.178 206.843C240.273 206.589 240.971 205.986 241.829 205.732C242.083 205.668 242.4 205.605 242.75 205.668C243.48 207.701 243.925 210.336 244.02 213.448C244.179 218.592 243.321 223.165 242.877 224.086C242.781 224.244 242.019 224.879 240.495 225.229C238.876 225.61 235.573 225.832 231.795 223.038C231.572 222.879 231.287 222.911 231.128 223.133C230.969 223.355 231.033 223.641 231.223 223.8C232.62 224.816 233.954 225.483 235.192 225.864L233.636 231.294C233.573 231.548 233.7 231.802 233.954 231.897C233.986 231.897 234.049 231.929 234.081 231.929C234.303 231.929 234.462 231.802 234.525 231.579L234.557 231.516C235.288 231.833 238.272 233.326 236.558 234.469C234.621 235.771 224.587 227.991 224.587 227.991V227.134C224.714 226.562 224.872 225.769 225.063 224.752L227.254 219.164C228.238 219.545 229.096 219.672 229.159 219.672C229.191 219.672 229.191 219.672 229.223 219.672C229.445 219.672 229.667 219.513 229.699 219.259C229.731 219.005 229.54 218.751 229.286 218.719C229.254 218.719 228.27 218.56 227.222 218.116C225.507 216.846 225.063 215.417 225.222 214.528C225.285 214.242 225.412 213.956 225.539 213.766C225.761 213.448 226.111 213.258 226.555 213.131C226.619 213.131 226.651 213.099 226.714 213.099C226.778 213.099 226.809 213.099 226.873 213.099C226.968 213.099 227.032 213.131 227.127 213.162C227.762 213.353 228.461 213.988 228.778 214.337L228.81 214.369C228.81 214.369 228.842 214.401 228.842 214.432C228.937 214.528 229.032 214.591 229.191 214.591C229.191 214.591 229.191 214.591 229.223 214.591C229.413 214.591 229.572 214.464 229.635 214.274C229.635 214.242 229.667 214.178 229.667 214.147C229.699 213.448 229.762 212.591 229.858 211.733C230.175 209.511 230.81 207.161 231.89 206.494C231.922 206.462 231.953 206.462 231.985 206.462C232.017 206.462 232.017 206.431 232.049 206.431C232.112 206.399 232.144 206.399 232.207 206.367C232.366 206.335 232.493 206.272 232.62 206.208C233.16 205.986 233.636 205.732 234.081 205.414C234.779 204.906 235.319 204.335 235.7 203.827L235.796 205.16V205.287C235.796 205.319 235.796 205.319 235.796 205.351C235.827 205.478 235.891 205.605 236.018 205.668C236.05 205.7 236.081 205.7 236.145 205.7C236.24 205.732 236.367 205.732 236.462 205.668C236.462 205.668 236.462 205.668 236.494 205.668C236.558 205.637 236.653 205.605 236.716 205.541C237.669 205.065 238.526 204.621 239.257 204.176C239.289 204.144 239.32 204.144 239.352 204.113C239.511 204.017 239.67 203.922 239.797 203.827C239.924 203.732 240.051 203.668 240.178 203.573C240.209 203.541 240.273 203.509 240.305 203.477C240.622 203.255 240.94 203.033 241.194 202.811C241.67 203.35 242.051 203.986 242.369 204.716ZM222.332 376.884C217.791 379.044 211.98 377.297 209.377 375.678C208.233 374.947 207.916 374.439 207.916 374.249C207.916 373.931 208.17 372.788 208.583 371.169C210.456 372.407 214.394 373.963 218.363 373.963C220.3 373.963 222.237 373.614 223.951 372.693C223.189 374.947 222.586 376.471 222.332 376.884ZM288.761 245.805C289.078 246.313 289.364 246.853 289.586 247.456C288.665 248.472 286.474 250.854 283.236 251.743C283.14 251.775 283.077 251.807 283.013 251.87C282.823 251.426 282.632 250.949 282.505 250.505C282.791 250.314 283.14 250.124 283.553 249.933C285.014 249.139 286.983 248.06 288.221 246.599C288.411 246.313 288.602 246.059 288.761 245.805ZM286.379 243.709C286.824 243.9 287.268 244.154 287.713 244.535C287.84 244.662 287.999 244.789 288.126 244.948C287.967 245.297 287.745 245.615 287.459 245.964C286.347 247.298 284.538 248.282 283.077 249.076C282.759 249.235 282.474 249.393 282.219 249.552C282.124 249.108 282.061 248.726 282.061 248.441C282.061 248.06 282.791 247.298 284.188 246.154C285.331 245.456 286.347 244.63 286.379 243.709ZM274.535 260.221L272.344 254.95L277.329 252.886C277.552 252.791 277.679 252.569 277.615 252.315C277.012 249.965 277.361 247.107 278.409 245.456C278.885 244.757 279.425 244.313 280.06 244.217C280.314 244.186 280.537 244.122 280.791 244.09C280.822 244.09 280.854 244.09 280.918 244.059C281.553 243.868 282.124 243.646 282.664 243.455C283.712 243.074 284.665 242.693 285.077 242.947C285.236 243.043 285.363 243.265 285.427 243.582C285.617 244.471 282.823 245.9 280.759 246.599C280.505 246.694 280.378 246.948 280.473 247.202C280.537 247.393 280.727 247.52 280.918 247.52C280.981 247.52 281.013 247.52 281.076 247.488C281.172 247.456 281.362 247.393 281.553 247.329C281.235 247.774 281.108 248.123 281.108 248.409C281.108 249.87 282.505 254.537 284.665 255.236C284.855 255.299 285.046 255.331 285.236 255.395C280.314 257.744 275.901 259.65 274.535 260.221ZM288.443 253.426C288.126 253.712 287.776 253.998 287.395 254.252C286.824 254.537 286.157 254.601 285.427 254.442C286.729 253.775 288.316 252.791 289.491 251.743C289.174 252.442 288.824 252.981 288.443 253.426ZM284.379 253.902L284.347 253.934C283.998 253.617 283.68 253.172 283.394 252.664C283.426 252.664 283.458 252.664 283.458 252.664C286.538 251.807 288.729 249.774 289.872 248.536C289.936 248.885 289.999 249.266 289.999 249.616C289.364 250.981 286.665 252.854 284.379 253.902Z" fill="#00112C"/>
</g>
<defs>
<linearGradient id="paint0_linear" x1="94.2051" y1="259.396" x2="144.757" y2="259.396" gradientUnits="userSpaceOnUse">
<stop stop-color="#A177FF"/>
<stop offset="1" stop-color="#02CEFF"/>
</linearGradient>
<linearGradient id="paint1_linear" x1="422.254" y1="4.75443" x2="518.182" y2="4.75443" gradientUnits="userSpaceOnUse">
<stop stop-color="#A177FF"/>
<stop offset="1" stop-color="#02CEFF"/>
</linearGradient>
<linearGradient id="paint2_linear" x1="338.994" y1="176.308" x2="368.97" y2="176.308" gradientUnits="userSpaceOnUse">
<stop stop-color="#A177FF"/>
<stop offset="1" stop-color="#02CEFF"/>
</linearGradient>
<linearGradient id="paint3_linear" x1="310.191" y1="127.459" x2="339.793" y2="127.459" gradientUnits="userSpaceOnUse">
<stop stop-color="#A177FF"/>
<stop offset="1" stop-color="#02CEFF"/>
</linearGradient>
<clipPath id="clip0">
<rect width="528" height="441.058" fill="white" transform="translate(0.5)"/>
</clipPath>
</defs>
</svg>