<svg width="177" height="88" viewBox="0 0 177 88" fill="none" xmlns="http://www.w3.org/2000/svg"><path d="M76.1016 36.2C76.2016 37 76.3016 37.6 76.3016 38.1 76.0016 39.4 72.9016 55 72.2016 65.5 71.2016 79.1 72.4016 84.4 73.2016 86.4 73.0016 86.3 72.7016 86.2 72.5016 86.1 46.7016 73.3 42.1016 52.2 39.8016 42 39.4016 40.2 39.1016 38.8 38.8016 37.8 38.7016 37.6 38.8016 37.3 39.0016 37.2L52.2016 28.4C53.6016 31 55.0016 33.3 56.2016 35.3 56.5016 37.2 57.0016 38.9 57.5016 40 57.8016 40.7 58.6016 40.9 59.7016 40.9 61.7016 43.9 62.9016 45.4 62.9016 45.4 63.0016 45.5 63.2016 45.6 63.4016 45.6 64.3016 45.6 64.7016 44.5 66.0016 39 69.2016 37.6 72.4016 35.8 73.6016 35.2 74.1016 35.8 74.9016 36.1 75.7016 36.1H76.1016V36.2z" fill="#fff"/><path d="M72.2015 22.9C73.2015 23.2 73.9015 24.9 74.5015 27.1 74.1015 27.3 73.7015 27.6 73.4015 27.9 72.7015 27.4 71.3015 26.6 69.7015 25.7 70.0015 24.9 70.4015 24.3 70.7015 23.8 71.0015 23.5 71.6015 22.7 72.2015 22.9z" fill="#fff"/><path d="M82.2015 20.7C83.1015 20.7 84.2015 22.5 85.3015 25 83.0015 26.3 81.1015 27.5 80.3015 28 80.0015 27.6 79.7015 27.4 79.3015 27.2 80.5015 21.7 81.6015 20.8 82.2015 20.7c-.09999999999999432.0.0.0.0.0z" fill="#fff"/><path d="M124.202 23.6C124.402 24 124.402 24.4 124.202 24.8 116.802 37.3 97.4015 45.7 94.3015 45.2 93.9015 45 93.4015 43.9 92.9015 42.5 93.9015 42.7 94.7015 42.6 95.2015 42.2 99.2015 38.7 101.702 26.9 97.7015 22.2 96.0015 20.1 90.8015 22.2 86.5015 24.5 85.0015 21.2 83.6015 19.4 82.1015 19.6 80.9015 19.7 79.5015 20.9 78.2015 27c0 0 0 0-.09999999999999432.0H75.9015C75.0015 23.9 73.9015 22.2 72.6015 21.8 71.6015 21.5 70.6015 22 69.8015 23.2 69.4015 23.7 69.1015 24.4 68.7015 25.3 64.5015 23.1 59.1015 20.9 57.6015 23.4 56.2015 25.6 55.8015 29.2 56.0015 32.7 55.1015 31.1 54.1015 29.4 53.1015 27.5 52.9015 27.1 52.8015 26.6 52.9015 26.1L55.5015 12.7C55.6015 12.3 55.6015 11.9 55.7015 11.6 55.7015 11.4 55.7015 11.3 55.8015 11.1 56.2015 8.80001 59.3015 6.40001 64.2015 4.50001 68.3015 3.00001 75.4015 1.20001 86.4015 1.20001 95.9015 1.20001 103.902 1.90001 109.602 3.10001 114.602 4.20001 117.702 5.80001 118.502 7.70001 118.702 8.40001 120.502 15.4 121.302 17.4 121.802 18.9 123.302 21.9 124.202 23.6z" fill="#fff"/><path d="M137.801 35.1C138.101 35.3 138.201 35.7 138.001 36 130.401 51.3 119.001 64 103.901 73.8 96.0015 78.9 88.6015 82.3 83.2015 84.3V84.2C82.8015 83.1 81.6015 82.5 80.5015 82.9 80.0015 83.1 79.5015 83.5 79.3015 84 79.1015 84.5 79.0015 85.1 79.2015 85.6 79.2015 85.7 79.3015 85.7 79.3015 85.8 78.1014 86.2 77.1015 86.5 76.4015 86.7 75.9015 86.8 75.4015 86.9 74.9015 86.9 74.9015 86.9 74.9015 86.9 74.8015 86.8 74.8015 86.8 72.2015 83.6 73.5015 65.8 74.3015 55.1 77.5014 39 77.6014 38.5V38.4C77.7014 37.7 77.8015 37 77.8015 36.4H78.0015C78.9015 36.4 79.7015 36 80.2015 35.4 81.7015 36.3 87.3015 40.6 91.3015 42.2 92.4015 45.2 93.1015 46.5 94.0015 46.6 94.1015 46.6 94.3015 46.6 94.5015 46.6 99.2015 46.6 117.001 38.2 124.601 26.5L137.801 35.1z" fill="#fff"/><path d="M119.202 8.79998C119.202 12.3 109.202 19.4 83.2016 19.4 79.3016 19.4 79.3016 27.2 78.2016 27.5 76.8016 27.9 75.1016 28.2 75.1016 28.2 75.1016 28.2 73.8016 21.3 71.4016 20.4 58.7016 17.9 53.5016 12.8 57.9016 6.99998 60.2016 3.99998 69.0016.599976 88.0016.599976 107.002.599976 119.202 3.39998 119.202 8.79998z" fill="url(#paint0_linear)"/><path d="M138.502 34C139.302 34.5 139.602 35.6 139.202 36.5 131.402 52 119.802 64.9 104.602 74.8 92.3015 82.8 81.0015 86.5 76.7015 87.8 76.1015 87.9 75.5015 88 74.9015 88 73.9015 88 72.9015 87.8 71.9015 87.3 45.6015 74.1 40.9015 52.6 38.6015 42.3 38.2015 40.6 37.9015 39.2 37.6015 38.3 37.3015 37.5 37.7015 36.6 38.4015 36.2L51.6015 27.4C51.4015 26.8 51.4015 26.3 51.5015 25.7L54.2015 12.6C54.3015 12.3 54.3015 11.9 54.4015 11.5 54.4015 11.3 54.5015 11.2 54.5015 11 55.4015 5.6 66.9015.0 86.4015.0 98.1015.0 117.902 1 119.902 7.8 119.902 7.9 119.902 8 119.902 8 120.402 9.9 121.902 15.3 122.502 17 123.002 18.4 124.602 21.6 125.302 22.9 125.702 23.6 125.702 24.4 125.302 25.1L138.502 34zM138.002 35.9C138.102 35.6 138.002 35.2 137.802 35L124.702 26.2C117.002 38 99.2015 46.4 94.5015 46.4 94.3015 46.4 94.2015 46.4 94.0015 46.4 93.1015 46.2 92.4015 45 91.3015 42 87.2015 40.4 81.7015 36.1 80.2015 35.2 79.7015 35.8 78.9015 36.2 78.0015 36.2H77.8015C77.7015 36.8 77.6015 37.5 77.6015 38.2V38.3C77.5015 38.9 74.2015 55 73.4015 65.6 72.1015 83.4 74.7015 86.6 74.7015 86.6 74.7015 86.6 74.7015 86.6 74.8015 86.7 75.3015 86.7 75.8015 86.6 76.3015 86.5 77.1015 86.3 78.0015 86 79.2015 85.6 79.2015 85.5 79.1015 85.5 79.1015 85.4 78.9015 84.9 79.0015 84.3 79.2015 83.8 79.5015 83.3 79.9015 82.9 80.4015 82.7 81.5015 82.3 82.7015 82.9 83.1015 84V84.1C88.5015 82 96.0015 78.7 103.802 73.6 118.902 63.9 130.402 51.2 138.002 35.9zM124.102 24.7C124.302 24.3 124.302 23.9 124.102 23.5 123.302 21.8 121.802 18.8 121.202 17.4 120.402 15.3 118.602 8.4 118.402 7.7 117.502 5.8 114.502 4.3 109.502 3.1 103.902 1.8 95.9015 1.2 86.3015 1.2 75.3015 1.2 68.2015 3 64.1015 4.5 59.2015 6.3 56.0015 8.8 55.7015 11.1 55.7015 11.3 55.6015 11.4 55.6015 11.6 55.5015 12 55.5015 12.4 55.4015 12.7L52.7015 25.8C52.6015 26.3 52.7015 26.8 52.9015 27.2 53.9015 29.1 54.9015 30.8 55.8015 32.4 55.6015 29 56.1015 25.3 57.4015 23.1 58.9015 20.6 64.3015 22.8 68.5015 25 68.8015 24.2 69.2015 23.5 69.6015 22.9 70.4015 21.8 71.4015 21.3 72.4015 21.5 73.7015 21.8 74.8015 23.6 75.7015 26.7H77.9015 78.0015C79.4015 20.6 80.8015 19.4 81.9015 19.3 83.5015 19.1 84.9015 21 86.3015 24.2 90.6015 21.9 95.8015 19.8 97.5015 21.9 101.502 26.7 99.1015 38.4 95.0015 41.9 94.5015 42.4 93.6015 42.4 92.7015 42.2 93.3015 43.7 93.8015 44.7 94.1015 44.9 97.4015 45.7 116.702 37.3 124.102 24.7zM85.3015 25C84.2015 22.5 83.1015 20.7 82.2015 20.7c0 0 0 0-.09999999999999432.0C81.6015 20.8 80.4015 21.6 79.2015 27.1 79.6015 27.3 79.9015 27.6 80.2015 27.9 81.1015 27.5 83.0015 26.3 85.3015 25zM76.3015 38.1C76.3015 37.6 76.2015 36.9 76.1015 36.2H75.7015C74.9015 36.2 74.1015 35.8 73.6015 35.3 72.4015 36 69.3015 37.7 66.0015 39.1 64.7015 44.6 64.3015 45.7 63.4015 45.7 63.2015 45.7 63.0015 45.6 62.9015 45.5 62.9015 45.5 61.7015 44 59.7015 41 58.6015 41.1 57.8015 40.8 57.5015 40.1 56.9015 39 56.5015 37.3 56.2015 35.4 55.0015 33.4 53.7015 31.1 52.2015 28.5L39.1015 37.3C38.9015 37.4 38.8015 37.6 38.9015 37.9 39.2015 38.9 39.6015 40.3 39.9015 42.1 42.1015 52.2 46.7015 73.3 72.5015 86.2 72.7015 86.3 73.0015 86.4 73.2015 86.5 72.4015 84.5 71.2015 79.2 72.2015 65.6 73.0015 55.1 76.0015 39.5 76.3015 38.1zM74.5015 27.1C73.9015 24.9 73.1015 23.1 72.2015 22.9 71.6015 22.7 71.0015 23.5 70.8015 23.8 70.4015 24.3 70.1015 25 69.8015 25.7 71.4015 26.6 72.8015 27.5 73.5015 27.9 73.8015 27.6 74.1015 27.3 74.5015 27.1zM63.4015 44.1C63.7015 43.3 64.2015 41.6 64.6015 39.7 63.4015 40.2 62.2015 40.6 61.1015 40.8 62.2015 42.4 62.9015 43.5 63.4015 44.1z" fill="#00112c"/><path d="M71.4015 20.9C71.8015 20.9 72.1015 20.7 72.1015 20.4 72.1015 20.1 71.9015 19.7 71.6015 19.7 66.5015 19 60.1015 16.8 58.0015 13.6 57.4015 12.6 57.2015 11.6 57.6015 10.6 57.7015 10.3 57.5015 9.9 57.2015 9.8 56.9015 9.7 56.5015 9.9 56.4015 10.2 56.0015 11.6 56.1015 13 57.0015 14.3 59.1015 17.8 65.8015 20.2 71.4015 20.9z" fill="#00112c"/><path d="M85.2016 20C85.8016 20 86.3016 20 86.9016 20 101.302 20 114.302 15.8 118.402 11.6 118.602 11.4 118.602 11 118.402 10.7 118.202 10.5 117.802 10.5 117.502 10.7 112.402 15.8 96.7016 18.9 85.2016 18.7 84.9016 18.7 84.6016 19 84.6016 19.3 84.6016 19.7 84.9016 20 85.2016 20z" fill="#00112c"/><path d="M91.2015 58.4C91.6015 54.3 92.1015 50.1 92.9015 45.6 92.6015 45.2 92.3015 44.6 91.9015 43.8 91.0015 49 90.3015 53.8 89.9015 58.4 89.2015 66.5 90.0015 73.6 91.5015 80.7 91.9015 80.5 92.3015 80.3 92.7015 80.1 91.3015 73.1 90.5015 66.2 91.2015 58.4z" fill="url(#paint1_linear)"/><path d="M87.4015 58.4C87.9015 52.6 88.8015 46.8 89.9015 41.4 89.5015 41.2 89.1015 41 88.7015 40.8 87.6015 46.4 86.7015 52.3 86.2015 58.3 85.5015 66.7 86.3015 73.9 88.2015 82.2 88.6015 82 89.0015 81.9 89.4015 81.7 87.5015 73.6 86.7015 66.5 87.4015 58.4z" fill="url(#paint2_linear)"/><path d="M71.1015 36.7C70.6015 36.9 70.1015 37.2 69.6015 37.5 65.6015 54 63.7015 65.6 65.3015 82 65.7015 82.3 66.2015 82.6 66.7015 82.9 64.8015 65.7 66.8015 53.9 71.1015 36.7z" fill="url(#paint3_linear)"/><path d="M95.1015 58.4C95.4015 54.5 96.0015 50.5 96.7015 46.1 96.2015 46.2 95.8015 46.3 95.4015 46.4 94.7015 50.6 94.2015 54.5 93.9015 58.3 93.3015 65.7 93.9015 72.2 95.2015 78.9 95.6015 78.7 96.0015 78.5 96.4015 78.3 95.1015 71.8 94.4015 65.5 95.1015 58.4z" fill="url(#paint4_linear)"/><path d="M61.7015 43.9C61.4015 43.5 61.1015 43 60.7015 42.5 58.1015 55.1 56.9015 65.9 57.1015 75.5 57.5015 75.9 58.0015 76.3 58.4015 76.7 58.1015 67.2 59.2015 56.4 61.7015 43.9z" fill="url(#paint5_linear)"/><path d="M66.6015 38.9C66.4015 39 66.2015 39.1 66.0015 39.2 65.0015 43.6 64.5015 45.2 63.9015 45.7 61.7015 56.9 60.4015 68.2 61.0015 79 61.4015 79.3 61.9015 79.7 62.3015 80 61.4015 66.7 63.5015 52.6 66.6015 38.9z" fill="url(#paint6_linear)"/><path d="M114.202 58.3C115.002 49.4 116.702 41 118.502 33.3 118.002 33.8 117.402 34.3 116.902 34.7 115.202 42 113.702 49.8 113.002 58.1 112.702 61.2 112.702 64.2 112.902 67.1 113.302 66.8 113.702 66.4 114.102 66.1 114.002 63.7 114.002 61.1 114.202 58.3z" fill="url(#paint7_linear)"/><path d="M123.902 27.4C123.302 28.2 122.702 29 122.002 29.8 119.702 39.3 117.602 48.4 116.802 58.3 116.602 60.3 116.602 62.2 116.602 64.1 117.002 63.7 117.402 63.3 117.902 63 117.902 61.5 118.002 60 118.102 58.5 119.002 47.6 121.402 37.8 123.902 27.4z" fill="url(#paint8_linear)"/><path d="M98.9015 58.3C99.3015 54 99.9015 49.5 100.802 44.7 100.302 44.9 99.9015 45.1 99.4015 45.2 98.6015 49.8 98.0015 54.1 97.7015 58.2 97.1015 64.9 97.6015 70.7 98.7015 76.9 99.1015 76.7 99.5015 76.5 99.9015 76.2 98.8015 70.3 98.3015 64.7 98.9015 58.3z" fill="url(#paint9_linear)"/><path d="M120.501 60.3C121.001 59.8 121.401 59.4 121.901 58.9 121.901 58.7 121.901 58.5 121.901 58.3 122.801 47.7 125.301 37.4 127.501 28.2L126.401 27.5C124.101 36.9 121.601 47.4 120.701 58.3 120.601 58.9 120.501 59.6 120.501 60.3z" fill="url(#paint10_linear)"/><path d="M110.401 58.3C111.001 52 112.001 45.5 113.801 37.2 113.301 37.6 112.801 37.9 112.301 38.3 110.701 46 109.701 52.2 109.201 58.2 108.801 62.4 108.901 66.2 109.301 70 109.701 69.7 110.101 69.4 110.501 69.1 110.101 65.7 110.101 62.1 110.401 58.3z" fill="url(#paint11_linear)"/><path d="M47.4015 31.7C45.4015 37.2 43.8015 44.9 42.8015 53.3 43.1015 54.2 43.4015 55.1 43.8015 56 44.8015 45.8 46.8015 36.5 49.2015 30.6L47.4015 31.7z" fill="url(#paint12_linear)"/><path d="M105.002 42.7C104.502 42.9 104.002 43.2 103.602 43.4 102.602 48.7 101.902 53.6 101.502 58.2 101.002 64.1 101.302 69.5 102.202 74.8 102.602 74.6 103.002 74.3 103.402 74.1 102.602 69 102.302 63.9 102.802 58.3 103.202 53.5 103.902 48.4 105.002 42.7z" fill="url(#paint13_linear)"/><path d="M108.602 39.3C108.502 39.3 108.402 39.4 108.302 39.5 108.402 39.4 108.502 39.3 108.602 39.3z" fill="url(#paint14_linear)"/><path d="M52.4015 28.8C48.9015 38.3 46.7015 49.2 45.8015 60.3 46.2015 61 46.5015 61.7 46.9015 62.4 47.6015 51.2 49.7015 40 53.2015 30.3 52.9015 29.8 52.7015 29.3 52.4015 28.8z" fill="url(#paint15_linear)"/><path d="M122.701 26.9C122.801 26.8 122.901 26.7 123.001 26.5 122.901 26.6 122.801 26.7 122.701 26.9z" fill="url(#paint16_linear)"/><path d="M113.001 36.3C112.901 36.3 112.801 36.4 112.701 36.5 112.801 36.4 112.901 36.3 113.001 36.3z" fill="url(#paint17_linear)"/><path d="M106.602 58.3C107.102 52.8 108.002 47 109.302 40.2 108.802 40.5 108.302 40.8 107.802 41.1 106.502 47.4 105.702 52.9 105.302 58.2 104.902 63.3 105.102 67.9 105.702 72.5 106.102 72.2 106.502 72 106.902 71.7 106.302 67.4 106.202 63.1 106.602 58.3z" fill="url(#paint18_linear)"/><path d="M74.9015 36.1C74.5015 36 74.1015 35.8 73.8015 35.5 70.0015 51.9 67.2015 68.8 69.1015 84.4 69.5015 84.7 70.0015 84.9 70.5015 85.2 68.4015 69.6 71.1015 52.6 74.9015 36.1z" fill="url(#paint19_linear)"/><path d="M58.5015 40.9C58.0015 40.8 57.7015 40.5 57.5015 40.2 57.5015 40.1 57.4015 40.1 57.4015 40 55.1015 50.5 53.4015 61.1 53.3015 71.6 53.7015 72.1 54.1015 72.5 54.5015 73 54.6015 62.3 56.2015 51.5 58.5015 40.9z" fill="url(#paint20_linear)"/><path d="M104.201 41.7C104.101 41.7 104.101 41.8 104.001 41.8 104.101 41.7 104.201 41.7 104.201 41.7z" fill="url(#paint21_linear)"/><path d="M55.1015 33.5C52.6015 44.1 50.4015 55.5 49.7015 66.8 50.1015 67.3 50.5015 67.9 50.8015 68.4 51.2015 59.8 52.7015 49.1 55.9015 35 55.7015 34.6 55.4015 34.1 55.1015 33.5z" fill="url(#paint22_linear)"/><path d="M80.6015 51.1C81.7613 51.1 82.7015 50.1598 82.7015 49 82.7015 47.8402 81.7613 46.9 80.6015 46.9 79.4417 46.9 78.5015 47.8402 78.5015 49 78.5015 50.1598 79.4417 51.1 80.6015 51.1z" fill="#00112c"/><path d="M79.7016 69.8C80.8614 69.8 81.8016 68.8598 81.8016 67.7 81.8016 66.5402 80.8614 65.6 79.7016 65.6 78.5418 65.6 77.6016 66.5402 77.6016 67.7 77.6016 68.8598 78.5418 69.8 79.7016 69.8z" fill="#00112c"/><defs><linearGradient id="paint0_linear" x1="56.3628" y1=".599976" x2="119.202" y2=".599976" gradientUnits="userSpaceOnUse"><stop stop-color="#a177ff"/><stop offset="1" stop-color="#02ceff"/></linearGradient><linearGradient id="paint1_linear" x1="89.6453" y1="43.8" x2="92.9015" y2="43.8" gradientUnits="userSpaceOnUse"><stop stop-color="#a177ff"/><stop offset="1" stop-color="#02ceff"/></linearGradient><linearGradient id="paint2_linear" x1="85.9512" y1="40.8" x2="89.9015" y2="40.8" gradientUnits="userSpaceOnUse"><stop stop-color="#a177ff"/><stop offset="1" stop-color="#02ceff"/></linearGradient><linearGradient id="paint3_linear" x1="64.735" y1="36.7" x2="71.1015" y2="36.7" gradientUnits="userSpaceOnUse"><stop stop-color="#a177ff"/><stop offset="1" stop-color="#02ceff"/></linearGradient><linearGradient id="paint4_linear" x1="93.668" y1="46.1" x2="96.7015" y2="46.1" gradientUnits="userSpaceOnUse"><stop stop-color="#a177ff"/><stop offset="1" stop-color="#02ceff"/></linearGradient><linearGradient id="paint5_linear" x1="57.0801" y1="42.5" x2="61.7015" y2="42.5" gradientUnits="userSpaceOnUse"><stop stop-color="#a177ff"/><stop offset="1" stop-color="#02ceff"/></linearGradient><linearGradient id="paint6_linear" x1="60.8552" y1="38.9" x2="66.6015" y2="38.9" gradientUnits="userSpaceOnUse"><stop stop-color="#a177ff"/><stop offset="1" stop-color="#02ceff"/></linearGradient><linearGradient id="paint7_linear" x1="112.762" y1="33.3" x2="118.502" y2="33.3" gradientUnits="userSpaceOnUse"><stop stop-color="#a177ff"/><stop offset="1" stop-color="#02ceff"/></linearGradient><linearGradient id="paint8_linear" x1="116.602" y1="27.4" x2="123.902" y2="27.4" gradientUnits="userSpaceOnUse"><stop stop-color="#a177ff"/><stop offset="1" stop-color="#02ceff"/></linearGradient><linearGradient id="paint9_linear" x1="97.4448" y1="44.7" x2="100.802" y2="44.7" gradientUnits="userSpaceOnUse"><stop stop-color="#a177ff"/><stop offset="1" stop-color="#02ceff"/></linearGradient><linearGradient id="paint10_linear" x1="120.501" y1="27.5" x2="127.501" y2="27.5" gradientUnits="userSpaceOnUse"><stop stop-color="#a177ff"/><stop offset="1" stop-color="#02ceff"/></linearGradient><linearGradient id="paint11_linear" x1="108.947" y1="37.2" x2="113.801" y2="37.2" gradientUnits="userSpaceOnUse"><stop stop-color="#a177ff"/><stop offset="1" stop-color="#02ceff"/></linearGradient><linearGradient id="paint12_linear" x1="42.8015" y1="30.6" x2="49.2015" y2="30.6" gradientUnits="userSpaceOnUse"><stop stop-color="#a177ff"/><stop offset="1" stop-color="#02ceff"/></linearGradient><linearGradient id="paint13_linear" x1="101.261" y1="42.7" x2="105.002" y2="42.7" gradientUnits="userSpaceOnUse"><stop stop-color="#a177ff"/><stop offset="1" stop-color="#02ceff"/></linearGradient><linearGradient id="paint14_linear" x1="108.302" y1="39.3" x2="108.602" y2="39.3" gradientUnits="userSpaceOnUse"><stop stop-color="#a177ff"/><stop offset="1" stop-color="#02ceff"/></linearGradient><linearGradient id="paint15_linear" x1="45.8015" y1="28.8" x2="53.2015" y2="28.8" gradientUnits="userSpaceOnUse"><stop stop-color="#a177ff"/><stop offset="1" stop-color="#02ceff"/></linearGradient><linearGradient id="paint16_linear" x1="122.701" y1="26.5" x2="123.001" y2="26.5" gradientUnits="userSpaceOnUse"><stop stop-color="#a177ff"/><stop offset="1" stop-color="#02ceff"/></linearGradient><linearGradient id="paint17_linear" x1="112.701" y1="36.3" x2="113.001" y2="36.3" gradientUnits="userSpaceOnUse"><stop stop-color="#a177ff"/><stop offset="1" stop-color="#02ceff"/></linearGradient><linearGradient id="paint18_linear" x1="105.094" y1="40.2" x2="109.302" y2="40.2" gradientUnits="userSpaceOnUse"><stop stop-color="#a177ff"/><stop offset="1" stop-color="#02ceff"/></linearGradient><linearGradient id="paint19_linear" x1="68.4905" y1="35.5" x2="74.9015" y2="35.5" gradientUnits="userSpaceOnUse"><stop stop-color="#a177ff"/><stop offset="1" stop-color="#02ceff"/></linearGradient><linearGradient id="paint20_linear" x1="53.3015" y1="40" x2="58.5015" y2="40" gradientUnits="userSpaceOnUse"><stop stop-color="#a177ff"/><stop offset="1" stop-color="#02ceff"/></linearGradient><linearGradient id="paint21_linear" x1="104.001" y1="41.7" x2="104.201" y2="41.7" gradientUnits="userSpaceOnUse"><stop stop-color="#a177ff"/><stop offset="1" stop-color="#02ceff"/></linearGradient><linearGradient id="paint22_linear" x1="49.7015" y1="33.5" x2="55.9015" y2="33.5" gradientUnits="userSpaceOnUse"><stop stop-color="#a177ff"/><stop offset="1" stop-color="#02ceff"/></linearGradient></defs></svg>