<svg width="177" height="88" viewBox="0 0 177 88" fill="none" xmlns="http://www.w3.org/2000/svg"><g clip-path="url(#clip0)"><path d="M132.901 38.7C134.501 40.3 134.501 43 132.901 44.6L91.6007 85.8C90.0007 87.4 87.3007 87.4 85.7007 85.8L64.4007 64.4C62.8007 62.8 62.8007 60.1 64.4007 58.5L105.601 17.3C107.201 15.7 109.901 15.7 111.501 17.3L132.901 38.7z" fill="#fff"/><path d="M133.601 38C135.601 40 135.601 43.3 133.601 45.3L92.3007 86.5C91.3007 87.5 90.0007 88 88.7007 88 87.4007 88 86.1007 87.5 85.1007 86.5L63.7007 65.1C61.7007 63.1 61.7007 59.8 63.7007 57.8L104.901 16.6C106.901 14.6 110.201 14.6 112.201 16.6L133.601 38zM132.901 44.6C134.501 43 134.501 40.3 132.901 38.7L111.501 17.3C109.901 15.7 107.201 15.7 105.601 17.3L64.4007 58.5C62.8007 60.1 62.8007 62.8 64.4007 64.4L85.8007 85.8C87.4007 87.4 90.1007 87.4 91.7007 85.8L132.901 44.6z" fill="#00112c"/><path d="M88.5007 81.6C87.6007 81.6 86.8007 81.3 86.1007 80.6L71.5007 66C71.3007 65.8 71.3007 65.5 71.5007 65.3 71.7007 65.1 72.0007 65.1 72.2007 65.3L86.8007 79.9C87.7007 80.8 89.3007 80.8 90.2007 79.9L124.501 45.6C124.701 45.4 125.001 45.4 125.201 45.6 125.401 45.8 125.401 46.1 125.201 46.3L90.9007 80.6C90.3007 81.2 89.4007 81.6 88.5007 81.6z" fill="#00112c"/><path d="M72.0007 57.9C71.9007 57.9 71.7007 57.9 71.7007 57.8 71.5007 57.6 71.5007 57.3 71.7007 57.1L106.301 22.5C107.601 21.2 109.801 21.2 111.101 22.5L125.801 37.2C126.001 37.4 126.001 37.7 125.801 37.9 125.601 38.1 125.301 38.1 125.101 37.9L110.401 23.2C109.901 22.7 109.301 22.5 108.701 22.5 108.101 22.5 107.401 22.8 107.001 23.2L72.4007 57.8C72.3007 57.9 72.2007 57.9 72.0007 57.9z" fill="#00112c"/><path d="M105.301 45.2C105.301 45 105.101 44.9 105.001 44.9 98.2007 42.8 92.7007 44.5 90.5007 46.9 89.2007 48.4 88.9006 50.2 89.8006 52 90.6006 53.6 92.5007 54.3 94.4007 54.2L91.3006 56.5C91.2006 56.6 91.1006 56.7 91.1006 56.9 91.1006 57 91.1007 57.2 91.2007 57.3L92.8006 58.9C92.9006 59 93.0007 59.1 93.2007 59 93.3007 59 93.5006 58.9 93.6006 58.8L95.9007 55.7C95.8007 57.6 96.6006 59.5 98.1006 60.3 98.8006 60.6 99.5007 60.8 100.201 60.8 101.301 60.8 102.301 60.4 103.201 59.6 105.701 57.5 107.401 52 105.301 45.2z" fill="url(#paint0_linear)"/><path d="M130.701 39.7C130.701 39.6 130.601 39.6 130.501 39.5 128.201 38.8 126.301 39.4 125.601 40.2 125.101 40.7 125.001 41.4 125.401 42 125.601 42.5 126.201 42.7 126.801 42.8L126.001 43.4C125.901 43.4 125.901 43.5 125.901 43.6 125.901 43.7 125.901 43.7 126.001 43.8l.5.5C126.601 44.4 126.601 44.4 126.701 44.4 126.801 44.4 126.801 44.4 126.901 44.3L127.501 43.5C127.501 44.1 127.801 44.6 128.301 44.9 128.501 45 128.801 45.1 129.001 45.1 129.401 45.1 129.701 45 130.101 44.7 130.901 43.9 131.401 42 130.701 39.7z" fill="url(#paint1_linear)"/><path d="M70.7006 58.9999C70.7006 58.8999 70.6006 58.8999 70.5006 58.7999 68.2006 58.0999 66.3006 58.6999 65.6006 59.4999 65.1006 59.9999 65.0006 60.6999 65.4006 61.2999 65.6006 61.7999 66.2006 61.9999 66.8006 62.0999L66.0006 62.6999C65.9006 62.6999 65.9006 62.7999 65.9006 62.8999 65.9006 62.9999 65.9006 62.9999 66.0006 63.0999l.5.5C66.6006 63.6999 66.6006 63.6999 66.7006 63.6999 66.8006 63.6999 66.8006 63.6999 66.9006 63.5999L67.5006 62.7999C67.5006 63.3999 67.8006 63.8999 68.3006 64.1999 68.5006 64.2999 68.8006 64.3999 69.0006 64.3999 69.4006 64.3999 69.7006 64.2999 70.1006 63.9999 70.8006 63.0999 71.4006 61.2999 70.7006 58.9999z" fill="url(#paint2_linear)"/><path d="M54.0007 62.8 81.9007 74.4C84.3007 75.4 87.0007 74.3 88.0007 71.9L110.301 18C111.301 15.6 110.201 12.9 107.801 11.9L79.8007.4C77.4007-.6 74.7007.5 73.7007 2.9L51.5007 56.7C50.5007 59.1 51.6007 61.8 54.0007 62.8z" fill="#00112c"/><path d="M81.7008 69.3C81.3008 69.3 80.8008 69.2 80.4008 69L61.3008 61.1C61.0008 61 60.9008 60.7 61.0008 60.5 61.1008 60.2 61.4008 60.1 61.6008 60.2L80.7008 68.1C81.3008 68.3 82.0008 68.3 82.6008 68.1 83.2008 67.9 83.7008 67.4 83.9008 66.8L102.501 22C102.601 21.7 102.901 21.6 103.101 21.7 103.401 21.8 103.501 22.1 103.401 22.3L84.9008 67.1C84.6008 67.9 83.9008 68.6 83.1008 68.9 82.6008 69.2 82.2008 69.3 81.7008 69.3z" fill="#fff"/><path d="M58.6007 53.5C58.5007 53.5 58.5007 53.5 58.4007 53.5 58.1007 53.4 58.0007 53.1 58.1007 52.9L76.9007 7.60001C77.2007 6.80001 77.9007 6.10001 78.7007 5.80001 79.5007 5.50001 80.5007 5.50001 81.3007 5.80001L99.7007 13.4C100.001 13.5 100.101 13.8 100.001 14 99.9007 14.3 99.6007 14.4 99.4007 14.3L80.9007 6.70001C80.3007 6.50001 79.6007 6.50001 79.0007 6.70001 78.5007 6.90001 78.0007 7.40001 77.8007 8.00001L59.1007 53.2C59.0007 53.4 58.8007 53.5 58.6007 53.5z" fill="#fff"/><path d="M89.2007 33.2C88.3007 32.4 86.9007 32.1 85.3007 32.5 84.2007 32.8 83.2007 33.3 82.4007 34 82.3007 33 82.0007 31.9 81.4007 30.9 80.6007 29.6 79.4007 28.7 78.2007 28.7 76.2007 28.6 74.7007 29.5 73.8007 31.2 73.0007 32.9 72.8007 35.2 73.4007 37.7 74.0007 40.4 75.4007 43.1 77.4007 45.5 77.5007 45.6 77.6007 45.7 77.8007 45.7 80.9007 45.4 83.8007 44.5 86.2007 43.1 88.4007 41.7 89.9007 40 90.5007 38.2 91.1007 36.2 90.7007 34.5 89.2007 33.2z" fill="url(#paint3_linear)"/><path d="M107.001 15.2C106.701 14.9 106.201 14.8 105.701 15 105.401 15.1 105.101 15.2 104.901 15.4 104.901 15.1 104.801 14.8 104.601 14.6 104.301 14.2 103.901 13.9 103.501 13.9 102.801 13.9 102.301 14.2 102.001 14.7 101.501 15.7 101.701 17.5 103.101 19.2 103.101 19.3 103.201 19.3 103.301 19.3 105.601 19.1 107.001 17.9 107.301 16.9 107.601 16.3 107.501 15.7 107.001 15.2z" fill="url(#paint4_linear)"/><path d="M57.9007 56.2C57.6007 56.3 57.3007 56.4 57.1007 56.6 57.1007 56.3 57.0007 56 56.8007 55.8 56.5007 55.4 56.1007 55.1 55.7007 55.1 55.0007 55.1 54.5007 55.4 54.2007 55.9 53.7007 56.9 53.9007 58.7 55.3007 60.4 55.3007 60.5 55.4007 60.5 55.5007 60.5 57.8007 60.3 59.2007 59.1 59.5007 58.1 59.7007 57.5 59.5007 56.9 59.1007 56.5 58.9007 56.1 58.5007 56 57.9007 56.2z" fill="url(#paint5_linear)"/><path d="M79.4007.199989c-1-.3-2.0999999999999943-.3-3 .1C76.7007.299989 77.1007.299989 77.4007.399989 77.1007.299989 76.8007.299989 76.4007.299989 75.2007.699989 74.3007 1.59999 73.8007 2.89999L51.5007 56.7C50.5007 59.1 51.6007 61.8 54.0007 62.8L68.7007 68.9H76.4007C79.5007 68.9 82.0007 66.4 82.0007 63.3V4.99999C82.0007 2.99999 81.0007 1.19999 79.4007.199989zM81.1007 63.3C81.1007 64.3 80.8007 65.2 80.3007 66 80.7007 65.2 81.1007 64.3 81.1007 63.3V4.99999C81.1007 4.09999 80.8007 3.19999 80.4007 2.49999 80.8007 3.19999 81.1007 3.99999 81.1007 4.99999V63.3z" fill="#00112c"/><path d="M76.4007 67.9H46.2007C43.6007 67.9 41.5007 65.8 41.5007 63.2V4.99999C41.5007 2.39999 43.6007.299988 46.2007.299988H76.4007C79.0007.299988 81.1007 2.39999 81.1007 4.99999V63.3C81.1007 65.8 79.0007 67.9 76.4007 67.9z" fill="url(#paint6_linear)"/><path d="M70.2007 63.5H49.6007C47.7007 63.5 46.2007 62 46.2007 60.1V11.6C46.2007 11.3 46.4007 11.1 46.7007 11.1 47.0007 11.1 47.2007 11.3 47.2007 11.6V60.1C47.2007 61.4 48.3007 62.5 49.6007 62.5H70.2007C70.5007 62.5 70.7007 62.7 70.7007 63 70.7007 63.3 70.5007 63.5 70.2007 63.5z" fill="#fff"/><path d="M75.9007 57.6C75.6007 57.6 75.4007 57.4 75.4007 57.1V8.19999C75.4007 6.89999 74.3007 5.79999 73.0007 5.79999H53.1007C52.8007 5.79999 52.6007 5.59999 52.6007 5.29999c0-.2999999999999998.19999999999999574-.5.5-.5H73.0007C74.9007 4.79999 76.4007 6.29999 76.4007 8.19999V57.1C76.4007 57.4 76.2007 57.6 75.9007 57.6z" fill="#fff"/><path d="M69.3007 33.5C65.4007 32.7 62.4007 29.7 61.6007 25.8 61.6007 25.6 61.4007 25.4 61.1007 25.4 60.9007 25.4 60.7007 25.6 60.6007 25.8 59.8007 29.7 56.8007 32.7 52.9007 33.5 52.7007 33.5 52.5007 33.7 52.5007 34 52.5007 34.2 52.7007 34.4 52.9007 34.5 56.8007 35.3 59.8007 38.3 60.6007 42.2 60.6007 42.4 60.8007 42.6 61.1007 42.6 61.3007 42.6 61.5007 42.4 61.6007 42.2 62.4007 38.3 65.4007 35.3 69.3007 34.5 69.5007 34.5 69.7007 34.3 69.7007 34 69.7007 33.8 69.5007 33.6 69.3007 33.5z" fill="#00112c"/><path d="M50.2007 5.49999C48.7007 5.19999 47.5007 3.99999 47.2007 2.49999 47.2007 2.39999 47.1007 2.29999 47.0007 2.29999 46.9007 2.29999 46.8007 2.39999 46.8007 2.49999 46.5007 3.99999 45.3007 5.19999 43.8007 5.49999 43.7007 5.49999 43.6007 5.59999 43.6007 5.69999 43.6007 5.79999 43.7007 5.99999 43.8007 5.99999c1.5.2999999999999998 2.700000000000003 1.5 3 3C46.8007 9.09999 46.9007 9.19999 47.0007 9.19999 47.1007 9.19999 47.2007 9.09999 47.3007 8.99999c.30000000000000426-1.5 1.5-2.7 3-3C50.4007 5.99999 50.5007 5.89999 50.5007 5.79999 50.5007 5.69999 50.3007 5.49999 50.2007 5.49999z" fill="#00112c"/><path d="M78.8007 62.5C77.3007 62.2 76.1007 61 75.8007 59.5 75.8007 59.4 75.7007 59.3 75.6007 59.3 75.5007 59.3 75.4007 59.4 75.4007 59.5 75.1007 61 73.9007 62.2 72.4007 62.5 72.3007 62.5 72.2007 62.6 72.2007 62.7 72.2007 62.8 72.3007 62.9 72.4007 62.9 73.9007 63.2 75.1007 64.4 75.4007 65.9 75.4007 66 75.5007 66.1 75.6007 66.1 75.7007 66.1 75.8007 66 75.8007 65.9 76.1007 64.4 77.3007 63.2 78.8007 62.9 78.9007 62.9 79.0007 62.8 79.0007 62.7 79.0007 62.6 79.0007 62.5 78.8007 62.5z" fill="#00112c"/></g><defs><linearGradient id="paint0_linear" x1="89.2833" y1="43.9497" x2="106.248" y2="43.9497" gradientUnits="userSpaceOnUse"><stop stop-color="#a177ff"/><stop offset="1" stop-color="#02ceff"/></linearGradient><linearGradient id="paint1_linear" x1="125.154" y1="39.191" x2="131.034" y2="39.191" gradientUnits="userSpaceOnUse"><stop stop-color="#a177ff"/><stop offset="1" stop-color="#02ceff"/></linearGradient><linearGradient id="paint2_linear" x1="65.1538" y1="58.491" x2="71.0127" y2="58.491" gradientUnits="userSpaceOnUse"><stop stop-color="#a177ff"/><stop offset="1" stop-color="#02ceff"/></linearGradient><linearGradient id="paint3_linear" x1="73.0519" y1="28.6925" x2="90.7681" y2="28.6925" gradientUnits="userSpaceOnUse"><stop stop-color="#a177ff"/><stop offset="1" stop-color="#02ceff"/></linearGradient><linearGradient id="paint4_linear" x1="101.752" y1="13.9" x2="107.47" y2="13.9" gradientUnits="userSpaceOnUse"><stop stop-color="#a177ff"/><stop offset="1" stop-color="#02ceff"/></linearGradient><linearGradient id="paint5_linear" x1="53.9521" y1="55.1" x2="59.5792" y2="55.1" gradientUnits="userSpaceOnUse"><stop stop-color="#a177ff"/><stop offset="1" stop-color="#02ceff"/></linearGradient><linearGradient id="paint6_linear" x1="41.5007" y1=".299988" x2="81.1007" y2=".299988" gradientUnits="userSpaceOnUse"><stop stop-color="#a177ff"/><stop offset="1" stop-color="#02ceff"/></linearGradient><clipPath id="clip0"><path d="M0 0h176v88H0z" fill="#fff" transform="translate(0.500732)"/></clipPath></defs></svg>