<svg width="177" height="88" viewBox="0 0 177 88" fill="none" xmlns="http://www.w3.org/2000/svg"><path d="M85.4007 88C98.3242 88 108.801 86.7464 108.801 85.2 108.801 83.6536 98.3242 82.4 85.4007 82.4 72.4773 82.4 62.0007 83.6536 62.0007 85.2 62.0007 86.7464 72.4773 88 85.4007 88z" fill="url(#paint0_linear)"/><path d="M112.501 52.1C112.501 52.1 109.001 61.3 107.001 59.4 105.601 58 108.501 51.7 109.301 45.6 110.101 39.5 107.801 32 102.601 28.9 104.201 30.7 104.401 32.6 104.101 34.3 103.701 36.2 100.901 36.1 100.701 34.1 100.401 30.7 99.5007 26.2 97.0007 20.9 92.8007 11.9 85.9007 8.3 88.7007.0 84.7007 5.5 84.4007 15.4 84.4007 18.4 83.6007 16 82.7007 11.6 79.8007 8.7 81.0007 34.4 67.7007 28.1 67.8007 44.3 63.0007 37.4 60.5007 38.3 60.5007 38.3 67.5007 47.4 56.3007 54 60.1007 67.6 62.5007 76.1 71.5007 84.8 86.9007 84 104.601 83.1 116.401 69.1 112.501 52.1z" fill="#00112c"/><path d="M82.4007 79.9C96.0007 82.2 102.801 70.1 102.801 67.1 97.2007 72.4 94.3007 67.8 95.7007 59.8 96.4007 55.5 95.7007 51 93.5007 47.2 90.6007 42.1 86.7007 38.1 87.9007 33.5 79.9007 44.2 79.3007 51.8 79.3007 51.8 79.3007 51.8 77.3007 50.4 78.0007 45.8 71.3007 54.2 78.0007 60.7 76.4007 66.4 75.2007 70.7 71.4007 68.4 71.3007 67.4 71.2007 66.4 73.4007 78.4 82.4007 79.9z" fill="url(#paint1_linear)"/><path d="M79.5007 72.3C79.7007 74.3 81.5007 78.3 85.2007 78.4 93.3007 78.4 92.9007 70.9 92.9007 70.9 92.9007 70.9 91.2007 74.8 90.7007 72.2 89.8007 61 85.9007 64.6 86.7007 57 81.9007 61.3 86.3007 66.6 84.4007 66.4 83.7007 66.3 83.1007 65.5 83.0007 63.2 79.5007 68.3 81.8007 74 81.8007 74 81.1007 74.2 79.5007 72.3 79.5007 72.3z" fill="#fff"/><path d="M105.901 19.9C105.101 15.9 101.901 12.8 97.9008 11.9 101.901 11.1 105.001 7.90002 105.901 3.90002 106.701 7.90002 109.901 11 113.901 11.9 109.901 12.8 106.801 15.9 105.901 19.9z" fill="url(#paint2_linear)"/><path d="M116.801 25.2001C116.401 23.1001 114.701 21.4 112.601 21 114.701 20.6 116.401 18.9 116.801 16.8 117.201 18.9 118.901 20.6 121.001 21 118.901 21.5 117.301 23.1001 116.801 25.2001z" fill="#00112c"/><path d="M116.801 39.8C116.601 38.7 115.701 37.8 114.501 37.5 115.601 37.3 116.501 36.4 116.801 35.2 117.001 36.3 117.901 37.2 119.101 37.5 117.901 37.8 117.001 38.7 116.801 39.8z" fill="url(#paint3_linear)"/><path d="M62.8007 33.6C62.1007 30.5 59.7007 28 56.5007 27.3 59.7007 26.6 62.1007 24.2 62.8007 21 63.5007 24.2 65.9007 26.6 69.1007 27.3 65.9007 28 63.4007 30.5 62.8007 33.6z" fill="#00112c"/><path d="M69.1008 21.3C68.9008 20.2 68.0008 19.3 66.8008 19 67.9008 18.8 68.8008 17.9 69.1008 16.7 69.3008 17.8 70.2008 18.7 71.4008 19 70.2008 19.3 69.3008 20.2 69.1008 21.3z" fill="url(#paint4_linear)"/><defs><linearGradient id="paint0_linear" x1="62.0007" y1="82.4" x2="108.801" y2="82.4" gradientUnits="userSpaceOnUse"><stop stop-color="#a177ff"/><stop offset="1" stop-color="#02ceff"/></linearGradient><linearGradient id="paint1_linear" x1="71.2975" y1="33.5" x2="102.801" y2="33.5" gradientUnits="userSpaceOnUse"><stop stop-color="#a177ff"/><stop offset="1" stop-color="#02ceff"/></linearGradient><linearGradient id="paint2_linear" x1="97.9008" y1="3.90002" x2="113.901" y2="3.90002" gradientUnits="userSpaceOnUse"><stop stop-color="#a177ff"/><stop offset="1" stop-color="#02ceff"/></linearGradient><linearGradient id="paint3_linear" x1="114.501" y1="35.2" x2="119.101" y2="35.2" gradientUnits="userSpaceOnUse"><stop stop-color="#a177ff"/><stop offset="1" stop-color="#02ceff"/></linearGradient><linearGradient id="paint4_linear" x1="66.8008" y1="16.7" x2="71.4008" y2="16.7" gradientUnits="userSpaceOnUse"><stop stop-color="#a177ff"/><stop offset="1" stop-color="#02ceff"/></linearGradient></defs></svg>