<svg width="400" height="512" viewBox="0 0 400 512" fill="none" xmlns="http://www.w3.org/2000/svg"><g clip-path="url(#clip0)"><path d="M399.5.0H-.499695V512H399.5V0z" fill="#00112c"/><path d="M399.5 454.323C375.155 452.89 359.155 438.221 295.513 445.517 231.872 452.813 248.921 461.133 207.372 461.133 165.824 461.133 145.856 432.512 96.4476 430.362 72.8188 429.338 38.2332 424.858-.525208 423.629V512H399.475V454.323H399.5z" fill="#fff"/><path d="M336.371 490.035C336.371 494.771 285.247 491.802 273.983 494.003 262.745 496.205 220.326 505.677 179.238 504.473 138.15 503.27 93.3755 497.946 84.2619 498.278 75.1483 498.611 37.6699 495.795 41.1003 489.728 44.5563 483.661 57.5611 484.198 91.2763 486.144 125.017 488.09 121.075 483.174 166.643 483.226 212.211 483.251 209.651 486.477 233.331 486.298 257.011 486.118 282.432 481.818 296.281 484.429 310.131 487.04 336.345 485.325 336.371 490.035z" fill="#00112c"/><path d="M137.613 60.5952C148.109 60.5952 156.633 69.12 156.633 79.616 156.633 90.112 148.109 98.6368 137.613 98.6368 127.117 98.6368 118.592 90.112 118.592 79.616 118.592 69.12 127.142 60.5952 137.613 60.5952z" fill="#fff"/><path d="M129.139 62.592C129.011 62.8992 128.934 63.2064 128.908 63.5136 128.883 64 129.088 64.5888 129.548 64.7424 129.83 64.8448 130.265 64.7936 130.649 64.8192 131.596 64.896 132.39 65.3568 133.158 65.8176 133.363 65.9456 133.568 66.0736 133.772 66.176 134.156 66.3808 135.436 67.0208 136.256 66.4064 136.588 66.1504 136.768 65.7152 136.998 65.28 137.177 64.896 137.356 64.4864 137.638 64.128 138.406 63.1808 139.763 62.7456 141.58 62.8736 141.862 62.8992 142.144 62.9248 142.425 62.9504 143.398 63.0528 144.32 63.1552 145.164 62.8992 145.446 62.8224 145.702 62.6688 145.932 62.464 146.265 62.6176 146.572 62.7968 146.88 62.976 146.496 63.3856 145.984 63.7184 145.446 63.872 144.396 64.1792 143.321 64.0768 142.297 63.9488 142.016 63.9232 141.76 63.8976 141.478 63.872 140.454 63.7952 139.123 63.872 138.432 64.7424 138.227 64.9984 138.073 65.3312 137.92 65.664 137.689 66.176 137.408 66.7648 136.87 67.1744 136.46 67.4816 135.948 67.6608 135.385 67.6608 134.745 67.6608 134.028 67.456 133.286 67.0464 133.056 66.9184 132.851 66.7904 132.62 66.6624 131.929 66.2528 131.289 65.8688 130.572 65.792 130.444 65.792 130.316 65.792 130.214 65.792 129.907 65.792 129.548 65.792 129.216 65.664 128.243 65.3056 127.833 64.256 127.884 63.3856 127.884 63.3344 127.884 63.2832 127.91 63.2064 128.32 63.0272 128.729 62.7968 129.139 62.592zM139.251 92.2624C141.35 92.032 143.526 90.0608 143.833 88.1152 143.961 87.3472 143.884 85.9392 142.016 85.0688 141.99 85.0432 141.964 85.0432 141.913 85.0432 141.017 84.8384 140.224 85.1456 139.43 85.4528 138.918 85.6576 138.432 85.8368 137.945 85.8624 137.408 85.888 136.819 85.7088 136.23 85.504 135.462 85.248 134.668 84.992 133.824 85.1456 133.081 85.2736 132.441 85.7088 131.852 86.1184 131.187 86.5792 130.598 86.9632 129.958 86.912 129.164 86.8096 128.704 86.0672 128.14 85.2224 127.731 84.608 127.321 83.968 126.732 83.4816L126.707 83.456C125.555 82.6624 124.07 82.4064 122.56 82.7392 121.331 82.9952 120.153 83.6096 119.18 84.4288 119.283 84.7872 119.385 85.1712 119.513 85.5296 120.384 84.6592 121.536 83.9936 122.764 83.7632 123.66 83.584 124.94 83.5328 126.118 84.3264 126.553 84.6848 126.937 85.248 127.27 85.8112 127.884 86.7584 128.55 87.8336 129.83 87.9616 130.854 88.064 131.673 87.5008 132.416 87.0144 132.953 86.656 133.465 86.2976 134.003 86.1952 134.592 86.0928 135.232 86.2976 135.897 86.5024 136.563 86.7072 137.254 86.9376 137.996 86.912 138.636 86.8864 139.225 86.656 139.788 86.4256 140.428 86.1696 141.043 85.9392 141.606 86.0672 142.528 86.5024 142.937 87.168 142.809 87.9872 142.579 89.472 140.736 91.0848 139.097 91.2896 136.844 91.5968 136.768 93.3632 136.691 94.7968 136.665 95.2576 136.64 95.7184 136.563 96.1536 135.948 97.0752 135.283 97.536 134.617 97.9456 134.412 98.0736 134.233 98.2016 134.028 98.3296 134.515 98.432 135.027 98.5088 135.539 98.56 136.153 98.1504 136.87 97.5872 137.484 96.6144 137.51 96.5632 137.536 96.512 137.561 96.4608 137.689 95.9232 137.715 95.3856 137.74 94.848 137.843 93.2608 137.945 92.4416 139.251 92.2624zM119.769 78.5152C120.921 78.08 121.792 77.184 122.073 76.1344 122.252 75.4432 122.176 74.752 122.099 74.0864 122.022 73.3952 121.945 72.7552 122.176 72.2176 122.38 71.7312 122.841 71.3472 123.353 70.9376 123.84 70.528 124.377 70.1184 124.71 69.504 125.094 68.8128 125.145 67.9424 124.838 67.1232 124.684 66.7392 124.48 66.4064 124.224 66.1248 123.993 66.3552 123.737 66.6112 123.507 66.8672 123.66 67.0464 123.788 67.2512 123.891 67.4816 124.096 67.9936 124.07 68.5824 123.814 68.992 123.584 69.4272 123.148 69.76 122.713 70.1184 122.15 70.5792 121.561 71.04 121.254 71.7824 120.921 72.576 120.998 73.3696 121.1 74.1632 121.177 74.752 121.228 75.3152 121.1 75.8272 120.921 76.544 120.281 77.184 119.436 77.5168 119.206 77.5936 118.976 77.6704 118.72 77.7216 118.694 78.08 118.668 78.4128 118.643 78.7712 119.001 78.7456 119.385 78.6432 119.769 78.5152zM144.627 96.4096C144.499 96.3072 144.448 96.0768 144.499 95.7184 144.652 95.1808 145.113 94.7456 145.625 94.2848 146.265 93.6704 147.008 93.0048 147.11 91.9552 147.11 91.8784 147.11 91.8272 147.084 91.7504 146.137 88.8832 146.854 86.784 149.414 85.0176 149.516 84.9408 149.568 84.864 149.619 84.736 149.875 83.8912 149.849 83.0464 149.824 82.2016 149.798 81.2288 149.772 80.3072 150.156 79.5136V79.488C150.412 78.848 151.718 77.6448 153.152 77.6448H153.177C154.508 77.6704 155.712 78.7712 156.633 80.8448 156.659 80.4352 156.684 80.0256 156.684 79.616 156.684 79.3344 156.684 79.0528 156.659 78.7712 155.481 77.0816 154.176 76.6464 153.203 76.6208 151.334 76.5952 149.67 78.0544 149.235 79.0784 148.748 80.1024 148.774 81.1776 148.8 82.2272 148.825 82.944 148.851 83.6352 148.697 84.2752 145.932 86.272 145.088 88.7808 146.086 91.9552 145.984 92.5696 145.497 93.0048 144.934 93.5424 144.345 94.08 143.731 94.6432 143.526 95.4624 143.526 95.488 143.526 95.488 143.526 95.5136 143.372 96.4864 143.731 96.9728 144.064 97.2032 144.166 97.28 144.268 97.3312 144.371 97.3824 145.216 97.0496 146.035 96.6912 146.828 96.256 145.779 96.5632 144.96 96.6656 144.627 96.4096zM127.321 74.1888C127.347 73.7536 127.552 73.2928 127.884 72.8576 128.473 72.0896 129.369 71.552 130.316 71.3472 130.521 71.296 130.726 71.3984 130.828 71.552 131.699 71.7312 132.39 72.5504 132.467 73.4976 132.518 74.4192 132.006 75.3664 131.136 75.9296 130.649 76.2368 130.086 76.416 129.548 76.416 129.267 76.416 128.985 76.3648 128.729 76.288 127.859 75.9552 127.27 75.0592 127.321 74.1888zM128.345 74.2656C128.32 74.6752 128.652 75.136 129.088 75.3152 129.548 75.4688 130.112 75.392 130.598 75.0848 131.136 74.7264 131.494 74.1376 131.468 73.5744 131.443 73.0368 130.956 72.5504 130.47 72.5504 130.368 72.5504 130.24 72.5248 130.163 72.448 129.6 72.6272 129.062 73.0112 128.704 73.472 128.499 73.7536 128.371 74.0352 128.345 74.2656zM150.182 69.1712C151.104 69.5296 152 70.4 151.923 71.5264 151.872 72.32 151.36 73.0624 150.438 73.6512 150.233 73.7792 150.003 73.9072 149.798 74.0096 149.388 74.24 148.979 74.4704 148.672 74.7776 148.108 75.3408 147.852 76.16 147.571 77.0304 147.238 78.0544 146.905 79.1296 146.009 79.872 145.369 80.384 144.601 80.5888 144.064 80.7168 143.603 80.8192 143.193 80.8704 142.809 80.8704 142.246 80.8704 141.785 80.768 141.35 80.5632 140.608 80.2304 140.096 79.616 139.609 79.0272 139.123 78.4384 138.662 77.9008 138.048 77.7216 137.894 77.6704 137.715 77.6448 137.536 77.6192 137.075 77.5424 136.563 77.44 136.153 77.056 135.846 76.7488 135.692 76.3392 135.718 75.904 135.744 75.264 136.128 74.5472 136.691 74.0864 136.921 73.9072 137.152 73.728 137.356 73.5744 137.817 73.2416 138.252 72.96 138.457 72.5248 138.662 72.1408 138.662 71.6544 138.662 71.168 138.662 70.8352 138.662 70.5024 138.713 70.1696 138.918 68.8896 139.404 68.0192 140.198 67.5584 141.632 66.7136 143.654 67.4304 145.446 68.0704 146.24 68.352 146.982 68.608 147.52 68.7104 147.724 68.736 147.929 68.7616 148.134 68.7872 148.876 68.8384 149.542 68.9152 150.182 69.1712zM149.798 70.1184C149.286 69.9136 148.723 69.8624 148.108 69.7856 147.878 69.76 147.673 69.7344 147.443 69.7088 146.777 69.6064 145.984 69.3248 145.164 69.0176 144.038 68.608 142.835 68.1728 141.836 68.1728 141.452 68.1728 141.094 68.2496 140.787 68.4288 140.275 68.736 139.942 69.3504 139.814 70.3232 139.763 70.5792 139.763 70.8608 139.763 71.168 139.763 71.7568 139.737 72.3968 139.456 72.9856 139.123 73.6256 138.56 74.0352 138.022 74.3936 137.817 74.5472 137.612 74.6752 137.433 74.8288 137.1 75.1104 136.844 75.5712 136.819 75.9296 136.819 76.0832 136.844 76.2112 136.947 76.3136 137.126 76.4928 137.408 76.544 137.766 76.5952 137.971 76.6208 138.176 76.672 138.406 76.7232 139.302 77.0048 139.891 77.696 140.454 78.3616 140.889 78.8736 141.299 79.3856 141.836 79.616 142.348 79.8464 143.04 79.872 143.91 79.6928 144.576 79.5392 145.062 79.36 145.42 79.0528 146.086 78.5152 146.342 77.6448 146.649 76.6976 146.956 75.7504 147.264 74.752 148.006 74.0096 148.416 73.6 148.902 73.344 149.363 73.088 149.568 72.9856 149.772 72.8576 149.952 72.7552 150.31 72.5248 150.924 72.0384 150.95 71.4496 150.95 70.8864 150.387 70.3488 149.798 70.1184zM127.449 78.7712C127.5 78.7456 127.526 78.72 127.577 78.6944 129.088 78.0544 129.856 78.4128 130.598 78.7712 131.468 79.1808 132.544 79.6928 135.564 78.7968 135.667 78.7712 135.795 78.7712 135.897 78.8224 137.612 79.5392 137.817 80.4608 137.689 81.0752 137.382 82.6624 134.464 83.968 132.262 83.968 130.06 83.968 127.168 82.8416 126.579 81.2288 126.425 80.6912 126.297 79.744 127.449 78.7712zM127.577 80.8192C127.961 81.8688 130.316 82.8928 132.313 82.8928 134.31 82.8928 136.563 81.6896 136.742 80.8448 136.819 80.4096 136.204 80.0256 135.718 79.7952 132.441 80.7424 131.136 80.128 130.188 79.6672 129.523 79.36 129.113 79.1552 128.064 79.5648 127.347 80.2304 127.526 80.6912 127.577 80.8192z" fill="#00112c"/><path d="M137.613 60.5952C148.109 60.5952 156.633 69.12 156.633 79.616 156.633 90.1121 148.109 98.6369 137.613 98.6369 127.117 98.6369 118.592 90.1121 118.592 79.616 118.592 69.12 127.142 60.5952 137.613 60.5952zM137.613 59.5712C126.553 59.5712 117.568 68.5568 117.568 79.616 117.568 90.6753 126.553 99.6609 137.613 99.6609 148.672 99.6609 157.657 90.6753 157.657 79.616 157.657 68.5568 148.697 59.5712 137.613 59.5712z" fill="#00112c"/><path d="M137.613 59.5712C148.672 59.5712 157.657 68.5568 157.657 79.616 157.657 90.6753 148.672 99.6609 137.613 99.6609 126.553 99.6609 117.568 90.6753 117.568 79.616 117.568 68.5568 126.553 59.5712 137.613 59.5712zM137.613 58.5472C125.99 58.5472 116.544 67.9936 116.544 79.616 116.544 91.2385 125.99 100.685 137.613 100.685 149.235 100.685 158.681 91.2385 158.681 79.616 158.681 67.9936 149.235 58.5472 137.613 58.5472z" fill="#fff"/><path d="M68.3388 334.08C71.52 334.08 74.0988 331.501 74.0988 328.32 74.0988 325.139 71.52 322.56 68.3388 322.56 65.1576 322.56 62.5788 325.139 62.5788 328.32 62.5788 331.501 65.1576 334.08 68.3388 334.08z" fill="#fff"/><path d="M275.673 106.982C275.34 104.243 273.164 102.067 270.425 101.734 273.164 101.402 275.34 99.2256 275.673 96.4864 276.006 99.2256 278.182 101.402 280.921 101.734 278.182 102.067 276.006 104.243 275.673 106.982z" fill="#fff"/><path d="M55.9486 139.853C54.1054 136.474 51.443 133.606 48.1918 131.558 51.4174 129.51 54.1054 126.643 55.9486 123.264 57.7918 126.643 60.4542 129.51 63.7054 131.558 60.4542 133.606 57.7918 136.474 55.9486 139.853z" fill="#fff"/><path d="M266.278 387.046C265.356 385.28 263.897 383.821 262.131 382.899 263.897 381.978 265.356 380.518 266.278 378.752 267.2 380.518 268.659 381.978 270.425 382.899 268.659 383.821 267.2 385.28 266.278 387.046z" fill="#fff"/><path d="M75.0205 155.571C74.0989 153.882 72.7676 152.448 71.1548 151.424 72.7676 150.4 74.0989 148.966 75.0205 147.277 75.9421 148.966 77.2733 150.4 78.8861 151.424 77.2733 152.448 75.9165 153.882 75.0205 155.571z" fill="#fff"/><path d="M304.601 80.7168C304.038 75.9552 300.275 72.192 295.513 71.6288 300.275 71.0656 304.038 67.3024 304.601 62.5408 305.165 67.3024 308.928 71.0656 313.689 71.6288 308.953 72.1664 305.165 75.9552 304.601 80.7168z" fill="#fff"/><path d="M313.561 248.576C303.219 242.304 293.311 238.029 286.758 235.213 284.633 234.291 282.79 233.498 281.331 232.806 278.771 231.603 271.398 225.28 263.564 218.598 255.475 211.686 246.335 203.878 240.447 199.91 240.396 199.885 240.345 199.834 240.294 199.808 240.345 198.374 239.628 197.197 238.22 196.352 237.324 195.814 236.172 195.482 234.969 195.354 245.644 188.058 252.684 175.795 252.684 161.92 252.684 139.622 234.534 121.472 212.236 121.472 189.939 121.472 171.788 139.622 171.788 161.92 171.788 167.654 172.991 173.107 175.142 178.048 172.121 176.64 169.203 175.437 166.412 174.592 165.9 173.517 165.132 172.774 164.134 172.442 162.956 172.058 161.497 172.288 160.063 173.082 159.705 172.339 158.911 171.802 157.862 171.597 156.07 171.264 153.433 171.93 151.871 174.208 148.006 175.258 145.983 176.742 143.449 178.586 141.017 180.378 137.971 182.605 132.134 185.216 122.022 189.696 104.486 199.424 100.364 213.837 100.339 213.888 100.339 213.939 100.364 213.99L100.748 213.939 137.817 209.075C138.175 210.458 138.636 211.814 139.225 213.171L124.71 248.218C123.532 251.059 123.404 254.234 124.351 257.152L125.375 260.275C120.153 276.326 115.238 291.251 113.267 296.73 110.425 304.589 109.631 318.976 108.889 332.877 108.3 343.629 107.686 354.739 106.124 362.291 102.438 380.006 83.2889 399.053 75.1481 405.018 69.9257 408.832 69.9513 409.139 70.9753 424.55 71.2057 428.006 71.4873 432.282 71.7689 437.555 72.1785 445.21 73.6377 450.355 76.1209 452.89 76.6585 453.53 77.1449 453.914 77.6057 454.042 77.7337 454.118 77.8873 454.195 78.0409 454.246 78.7833 454.579 79.5513 454.707 80.2681 454.707 82.5721 454.707 84.5945 453.325 85.5161 452.608 89.7913 449.178 91.6089 444.083 93.5289 438.656 94.5017 435.917 95.5001 433.101 96.8569 430.541 99.1865 426.086 111.628 415.155 122.585 405.504 130.111 398.874 137.228 392.627 140.812 388.762 149.439 379.443 155.916 327.706 156.607 322.022L168.639 324.838C173.222 325.888 186.303 333.491 189.171 335.155 188.582 335.59 187.763 336.486 187.763 338.022 187.763 339.942 189.734 341.53 190.502 342.067 189.068 344.602 179.187 362.138 174.579 370.022 173.324 372.173 173.99 375.782 176.601 381.107 179.059 386.099 182.873 391.834 185.535 395.699 191.705 404.685 196.595 411.162 202.047 411.162 202.457 411.162 202.841 411.136 203.251 411.059 205.222 410.701 206.86 409.6 208.063 407.782 213.414 399.77 209.471 380.262 208.959 377.882 210.137 376.73 217.791 369.178 224.601 359.859 234.534 346.266 238.041 335.616 235.02 328.218 231.257 318.976 223.654 310.758 216.947 303.488 213.439 299.674 210.214 296.192 208.038 293.069L212.851 253.542C214.412 248.397 215.871 243.942 216.742 241.28 217.151 240.051 218.15 239.104 219.379 238.771 219.404 238.771 219.43 238.797 219.481 238.797 219.507 238.797 219.507 238.797 219.532 238.797 219.609 238.797 219.686 238.746 219.737 238.694 220.556 238.541 221.375 238.669 222.118 239.027 222.143 239.053 222.169 239.053 222.195 239.053 222.553 239.232 222.886 239.488 223.193 239.77 252.275 269.005 287.628 272.794 297.74 271.821 300.377 271.565 301.555 271.027 302.63 270.566 303.628 270.131 304.422 269.773 306.239 269.747 307.135 270.106 307.75 270.541 308.569 271.13 310.131 272.23 312.486 273.92 319.065 276.762 318.451 277.632 318.22 278.502 318.399 279.373 318.732 281.267 320.78 282.394 320.857 282.445 326.054 285.466 334.297 277.914 335.731 276.557 336.55 276.966 339.212 278.221 342.566 278.81 344.844 279.219 346.483 279.296 347.532 278.426 348.351 277.734 348.735 276.48 348.735 274.509 348.633 270.362 331.763 259.584 313.561 248.576zM239.833 157.568C239.961 157.491 240.089 157.44 240.191 157.363 240.063 157.44 239.961 157.517 239.833 157.568zM235.686 142.31C237.99 144.922 243.007 150.426 242.342 154.419 243.007 150.426 237.99 144.922 235.686 142.31zM242.342 154.419C242.291 154.726 242.214 155.034 242.086 155.315 242.214 155.034 242.291 154.726 242.342 154.419zM242.086 155.315C241.958 155.597 241.804 155.878 241.599 156.134 241.804 155.904 241.958 155.622 242.086 155.315zM241.599 156.16C241.471 156.339 241.318 156.493 241.139 156.672 241.292 156.518 241.446 156.339 241.599 156.16zM241.113 156.672C241.036 156.749 240.934 156.826 240.831 156.902 240.934 156.826 241.036 156.749 241.113 156.672zM240.831 156.928C240.627 157.082 240.422 157.235 240.191 157.363 240.447 157.21 240.652 157.082 240.831 156.928zM234.995 141.517 235.02 141.542 234.995 141.517zM235.123 141.67C235.123 141.696 235.148 141.696 235.148 141.722 235.148 141.696 235.148 141.67 235.123 141.67zM235.276 141.85C235.302 141.875 235.302 141.875 235.327 141.901 235.302 141.875 235.302 141.85 235.276 141.85zM235.404 142.003C235.43 142.029 235.43 142.054 235.455 142.054 235.455 142.029 235.43 142.029 235.404 142.003zM235.583 142.182C235.609 142.208 235.635 142.259 235.686 142.285 235.635 142.259 235.609 142.234 235.583 142.182zM234.636 141.056c.02600000000001046.0.02600000000001046.0.0.0.02600000000001046.0.02600000000001046.0.0.0zM234.713 141.133c0 .024999999999977263.0.024999999999977263.0.0.0.024999999999977263.0.024999999999977263.0.0zM172.531 161.92C172.531 140.032 190.323 122.24 212.211 122.24 234.099 122.24 251.891 140.032 251.891 161.92 251.891 175.898 244.62 188.237 233.663 195.302 232.435 195.328 231.257 195.584 230.361 196.045 229.951 195.43 229.337 194.995 228.595 194.765 227.059 194.33 224.985 194.816 222.732 196.122 220.454 196.147 218.585 196.045 215.385 195.507 214.771 195.405 214.156 195.277 213.542 195.149 213.619 194.253 213.183 193.024 212.262 191.514 212.006 191.104 211.724 190.669 211.391 190.234 213.849 191.181 215.667 191.462 216.947 191.462 217.382 191.462 217.766 191.437 218.099 191.386 220.735 190.976 224.345 186.112 226.265 183.27 226.751 182.554 227.596 182.144 228.518 182.144 229.951 182.144 231.718 182.144 233.1 180.71 234.713 179.046 235.404 175.718 235.225 170.573 235.199 169.523 235.43 168.653 235.942 168.013 237.503 166.067 240.012 162.33 239.91 158.438 241.318 157.773 242.265 156.877 242.777 155.725 244.723 151.373 239.398 145.357 236.531 142.106 236.223 141.747 235.891 141.363 235.635 141.082 235.993 140.698 236.326 140.109 236.633 139.315 236.966 138.445 237.273 137.242 237.222 136.474 237.171 135.654 236.659 135.373 236.249 135.373 235.788 135.373 235.481 135.706 235.353 135.808L235.327 135.834 235.302 135.859C233.868 137.446 232.435 138.163 230.643 138.163 229.439 138.163 228.211 137.856 226.931 137.498 225.548 137.139 224.115 136.755 222.63 136.755 222.22 136.755 221.836 136.781 221.452 136.832 219.046 137.165 217.484 137.933 216.511 138.65 216.563 136.192 216.307 135.706 216.051 135.424 215.871 135.245 215.641 135.142 215.411 135.142 214.694 135.142 214.361 135.91 214.054 136.755 212.697 139.827 211.059 140.032 208.575 140.339 206.681 140.57 204.3 140.877 201.638 142.669 196.595 146.048 196.211 149.146 195.673 153.472 195.545 154.522 195.417 155.597 195.212 156.774 194.214 162.56 188.428 174.08 187.814 175.283 180.774 174.566 177.779 177.613 176.857 178.842 176.627 178.739 176.396 178.637 176.191 178.509 173.836 173.466 172.531 167.834 172.531 161.92z" fill="#fff"/><path d="M183.641 139.622C183.718 139.674 183.795 139.699 183.871 139.699 183.974 139.699 184.102 139.648 184.179 139.546 187.456 135.424 191.679 132.045 196.39 129.715 196.569 129.613 196.646 129.382 196.569 129.203 196.467 129.024 196.236 128.947 196.057 129.024 191.244 131.379 186.943 134.861 183.59 139.059 183.462 139.238 183.487 139.469 183.641 139.622z" fill="#fff"/><path d="M197.695 129.075C197.747 129.075 197.798 129.075 197.875 129.05 197.875 129.05 197.9 129.05 197.9 129.024 197.9 129.024 197.926 129.024 197.926 128.998 198.258 128.819 198.156 128.512 198.131 128.486 198.105 128.461 197.977 128.154 197.619 128.282 197.619 128.282 197.593 128.282 197.593 128.307 197.593 128.333 197.567 128.307 197.567 128.333 197.209 128.512 197.337 128.794 197.337 128.845 197.363 128.87 197.465 129.075 197.695 129.075z" fill="#fff"/><path d="M212.569 170.931C212.543 170.931 212.492 170.931 212.467 170.931 211.75 170.726 211.187 170.163 210.982 169.421 210.777 168.576 211.007 167.706 211.622 167.142 212.006 166.784 212.825 166.272 214.284 166.554 213.977 165.478 213.363 164.25 212.083 163.866 211.878 163.814 211.75 163.584 211.827 163.379 211.878 163.174 212.108 163.046 212.313 163.123 215.231 163.942 215.334 167.987 215.334 168.166 215.334 168.32 215.257 168.448 215.129 168.525 215.027 168.576 214.899 168.627 214.796 168.704 213.926 169.114 213.158 169.498 212.953 170.65 212.927 170.752 212.876 170.854 212.774 170.906 212.723 170.906 212.646 170.931 212.569 170.931zM213.491 167.219C212.953 167.219 212.492 167.373 212.159 167.68 211.75 168.064 211.596 168.653 211.75 169.216 211.852 169.574 212.031 169.856 212.313 170.035 212.697 168.832 213.619 168.397 214.463 167.987 214.489 167.962 214.54 167.962 214.566 167.936 214.566 167.782 214.54 167.603 214.489 167.373 214.131 167.27 213.798 167.219 213.491 167.219z" fill="#00112c"/><path d="M226.034 164.25C228.902 163.891 233.663 163.84 234.022 165.274 234.38 166.707 237.862 162.97 234.278 161.92 230.694 160.87 226.034 164.25 226.034 164.25z" fill="#00112c"/><path d="M229.852 169.369C230.457 168.499 230.609 167.557 230.191 167.267 229.773 166.976 228.944 167.447 228.339 168.318 227.734 169.189 227.582 170.13 228 170.421 228.418 170.711 229.248 170.24 229.852 169.369z" fill="#00112c"/><path d="M228.646 180.403C228.569 180.403 228.492 180.378 228.415 180.326 228.159 180.147 227.801 179.942 227.468 179.763 227.11 179.558 226.751 179.354 226.47 179.149 226.29 179.021 226.265 178.79 226.367 178.611 226.495 178.432 226.726 178.406 226.905 178.509 227.161 178.688 227.519 178.893 227.852 179.072 228.21 179.277 228.569 179.482 228.85 179.686 229.03 179.814 229.055 180.045 228.953 180.224 228.876 180.352 228.774 180.403 228.646 180.403z" fill="#00112c"/><path d="M192.345 340.838C192.217 340.838 192.089 340.787 192.038 340.659 191.91 340.48 191.961 340.25 192.14 340.122 195.136 338.099 198.464 337.101 203.276 336.717 203.481 336.691 203.66 336.87 203.686 337.075 203.712 337.28 203.532 337.459 203.328 337.485 198.643 337.843 195.443 338.816 192.55 340.762 192.473 340.813 192.396 340.838 192.345 340.838z" fill="#00112c"/><path d="M305.804 268.006C305.651 268.006 305.523 267.93 305.446 267.776 305.42 267.725 305.395 267.674 305.369 267.597 302.758 262.118 302.246 257.408 303.884 254.362 305.139 252.058 307.571 250.65 311.155 250.163 311.359 250.138 311.564 250.291 311.59 250.496 311.615 250.701 311.462 250.906 311.257 250.931 307.955 251.366 305.702 252.672 304.575 254.746 303.27 257.178 303.449 260.787 305.113 265.062 304.243 256.666 306.854 253.875 309.311 253.056 309.516 252.979 309.721 253.107 309.798 253.286 309.875 253.491 309.747 253.696 309.567 253.773 306.137 254.925 304.985 259.558 306.188 267.213 306.214 267.392 306.239 267.52 306.239 267.597 306.265 267.776 306.137 267.981 305.958 268.032 305.881 268.006 305.855 268.006 305.804 268.006z" fill="#00112c"/><path d="M193.011 216.525 192.191 218.522 180.006 215.322 180.825 213.325 193.011 216.525zM179.647 216.115 178.828 218.112 191.014 221.312 191.833 219.315 179.647 216.115zM178.495 218.906 177.676 220.902 189.862 224.102 190.681 222.106 178.495 218.906z" fill="#00112c"/><path d="M192.166 190.49 190.348 194.918C190.195 195.302 189.76 195.507 189.35 195.405L186.739 194.714C186.252 194.586 185.996 194.048 186.176 193.587L187.993 189.158C188.147 188.774 188.582 188.57 188.992 188.672L191.603 189.363C192.089 189.491 192.345 190.029 192.166 190.49zM189.222 203.264 191.833 203.955C192.243 204.058 192.652 203.853 192.832 203.469L194.649 199.04C194.854 198.579 194.572 198.042 194.086 197.914L191.475 197.222C191.065 197.12 190.656 197.325 190.476 197.709L188.659 202.138C188.454 202.598 188.736 203.136 189.222 203.264zM194.675 204.698 197.286 205.389C197.696 205.491 198.105 205.286 198.284 204.902L200.102 200.474C200.307 200.013 200.025 199.475 199.539 199.347L196.928 198.656C196.518 198.554 196.108 198.758 195.929 199.142L194.112 203.571C193.907 204.032 194.188 204.57 194.675 204.698zM182.08 203.392 180.262 207.821C180.057 208.282 180.339 208.819 180.825 208.947L183.436 209.638C183.846 209.741 184.256 209.536 184.435 209.152L186.252 204.723C186.457 204.262 186.176 203.725 185.689 203.597L183.078 202.906C182.668 202.778 182.233 203.008 182.08 203.392z" fill="#00112c"/><path d="M194.802 196.838 192.191 196.147C191.705 196.019 191.449 195.482 191.628 195.021L193.446 190.592C193.599 190.208 194.034 190.003 194.444 190.106L197.055 190.797C197.542 190.925 197.798 191.462 197.618 191.923L195.801 196.352C195.622 196.736 195.186 196.941 194.802 196.838zM198.898 192.026 197.081 196.454C196.876 196.915 197.158 197.453 197.644 197.581L200.255 198.272C200.665 198.374 201.074 198.17 201.254 197.786L203.071 193.357C203.276 192.896 202.994 192.358 202.508 192.23L199.897 191.539C199.487 191.437 199.052 191.642 198.898 192.026zM188.633 196.48 186.022 195.789C185.612 195.686 185.202 195.891 185.023 196.275L183.206 200.704C183.001 201.165 183.282 201.702 183.769 201.83L186.38 202.522C186.79 202.624 187.199 202.419 187.378 202.035L189.196 197.606C189.401 197.146 189.145 196.608 188.633 196.48zM187.532 204.826 185.714 209.254C185.51 209.715 185.791 210.253 186.278 210.381L188.889 211.072C189.298 211.174 189.708 210.97 189.887 210.586L191.705 206.157C191.91 205.696 191.628 205.158 191.142 205.03L188.53 204.339C188.121 204.211 187.686 204.442 187.532 204.826zM191.705 211.789 194.316 212.48C194.726 212.582 195.135 212.378 195.314 211.994L197.132 207.565C197.337 207.104 197.055 206.566 196.569 206.438L193.958 205.747C193.548 205.645 193.138 205.85 192.959 206.234L191.142 210.662C190.962 211.149 191.218 211.661 191.705 211.789zM184.921 193.485 186.738 189.056C186.943 188.595 186.662 188.058 186.175 187.93L183.564 187.238C183.154 187.136 182.745 187.341 182.566 187.725L180.748 192.154C180.543 192.614 180.825 193.152 181.311 193.28L183.922 193.971C184.332 194.074 184.767 193.869 184.921 193.485zM178.367 200.397 180.978 201.088C181.388 201.19 181.798 200.986 181.977 200.602L183.794 196.173C183.999 195.712 183.718 195.174 183.231 195.046L180.62 194.355C180.21 194.253 179.801 194.458 179.622 194.842L177.804 199.27C177.599 199.731 177.881 200.269 178.367 200.397zM176.678 201.958 174.86 206.387C174.655 206.848 174.937 207.386 175.423 207.514L178.034 208.205C178.444 208.307 178.854 208.102 179.033 207.718L180.85 203.29C181.055 202.829 180.774 202.291 180.287 202.163L177.676 201.472C177.266 201.37 176.831 201.574 176.678 201.958z" fill="url(#paint0_linear)"/><path d="M169.407 266.086C168.23 266.086 167.052 265.933 165.926 265.626 165.721 265.574 165.593 265.37 165.644 265.165 165.695 264.96 165.9 264.832 166.105 264.883 168.383 265.472 170.79 265.446 173.043 264.781 173.247 264.73 173.452 264.832 173.529 265.037 173.58 265.242 173.478 265.446 173.273 265.523 172.019 265.907 170.713 266.086 169.407 266.086z" fill="#00112c"/><path d="M162.649 264.755C162.623 264.755 162.572 264.755 162.547 264.755L129.676 256.128C129.471 256.077 129.343 255.872 129.395 255.667 129.446 255.462 129.651 255.334 129.855 255.386L162.726 264.013C162.931 264.064 163.059 264.269 163.007 264.474 162.982 264.653 162.828 264.755 162.649 264.755z" fill="#00112c"/><path d="M197.798 219.085C197.747 219.085 197.695 219.085 197.644 219.059 197.439 218.982 197.363 218.752 197.439 218.547L203.942 202.854C204.019 202.65 204.249 202.573 204.454 202.65 204.659 202.726 204.736 202.957 204.659 203.162L198.156 218.854C198.079 219.008 197.951 219.085 197.798 219.085z" fill="#00112c"/><path d="M194.188 227.789C194.137 227.789 194.086 227.789 194.035 227.763 193.83 227.686 193.753 227.456 193.83 227.251L196.492 220.826C196.569 220.621 196.799 220.544 197.004 220.621 197.209 220.698 197.286 220.928 197.209 221.133L194.547 227.558C194.47 227.712 194.342 227.789 194.188 227.789z" fill="#00112c"/><path d="M181.747 257.843C181.696 257.843 181.644 257.843 181.593 257.818 181.388 257.741 181.312 257.51 181.388 257.306L192.499 230.477C192.576 230.272 192.806 230.195 193.011 230.272 193.216 230.349 193.292 230.579 193.216 230.784L182.105 257.613C182.028 257.766 181.9 257.843 181.747 257.843z" fill="#00112c"/><path d="M176.268 264.192C176.14 264.192 176.012 264.115 175.935 264.013 175.833 263.834 175.884 263.603 176.063 263.475 177.113 262.835 178.086 262.067 178.931 261.145 179.084 260.992 179.315 260.992 179.468 261.12 179.622 261.273 179.622 261.504 179.494 261.657 178.598 262.605 177.599 263.449 176.473 264.115 176.396 264.166 176.345 264.192 176.268 264.192z" fill="#00112c"/><path d="M313.561 248.576C303.219 242.304 293.311 238.029 286.758 235.213 284.633 234.291 282.79 233.498 281.331 232.806 278.771 231.603 271.398 225.28 263.564 218.598 255.475 211.686 246.335 203.878 240.447 199.91 240.396 199.885 240.345 199.834 240.294 199.808 240.345 198.374 239.628 197.197 238.22 196.352 236.044 195.072 232.435 194.944 230.387 196.045 229.977 195.43 229.363 194.995 228.62 194.765 227.084 194.33 225.011 194.816 222.758 196.122 220.479 196.147 218.611 196.045 215.411 195.507 214.796 195.405 214.182 195.277 213.567 195.149 213.644 194.253 213.209 193.024 212.287 191.514 212.031 191.104 211.75 190.669 211.417 190.234 213.875 191.181 215.692 191.462 216.972 191.462 217.407 191.462 217.791 191.437 218.124 191.386 220.761 190.976 224.371 186.112 226.291 183.27 226.777 182.554 227.622 182.144 228.543 182.144 229.977 182.144 231.743 182.144 233.126 180.71 234.739 179.046 235.43 175.718 235.251 170.573 235.225 169.523 235.455 168.653 235.967 168.013 237.657 165.914 240.396 161.792 239.859 157.619 248.153 153.267 233.663 140.979 234.636 140.851 235.763 140.698 236.966 136.166 236.223 136.166 236.147 136.166 236.019 136.218 235.891 136.371 234.124 138.342 232.383 138.931 230.668 138.931 228.031 138.931 225.42 137.549 222.655 137.549 222.297 137.549 221.939 137.574 221.58 137.626 218.585 138.061 217.075 139.11 216.332 139.904 216.255 139.981 216.179 140.006 216.076 140.006 215.897 140.006 215.718 139.878 215.743 139.648 215.795 138.214 215.846 135.962 215.436 135.962 215.283 135.962 215.078 136.269 214.796 137.088 212.108 143.181 207.987 139.418 202.099 143.36 196.185 147.302 197.081 150.707 196.006 156.954 195.033 162.586 189.708 173.338 188.659 175.437 181.03 174.387 177.83 177.613 176.908 178.893 173.247 177.126 169.74 175.616 166.438 174.592 165.926 173.517 165.158 172.774 164.159 172.442 162.982 172.058 161.523 172.288 160.089 173.082 159.731 172.339 158.937 171.802 157.887 171.597 156.095 171.264 153.459 171.93 151.897 174.208 148.031 175.258 146.009 176.742 143.475 178.586 141.043 180.378 137.996 182.605 132.159 185.216 122.022 189.696 104.486 199.424 100.364 213.837 100.339 213.888 100.339 213.939 100.364 213.99L101.158 213.888C105.279 199.859 122.483 190.336 132.415 185.882 138.329 183.245 141.401 180.992 143.859 179.174 146.188 177.459 148.057 176.102 151.385 175.104 150.796 176.282 150.233 177.459 149.721 178.611 144.371 180.326 139.839 185.907 137.843 193.357 136.332 198.989 136.23 206.362 139.199 213.171L124.684 248.218C123.507 251.059 123.379 254.234 124.326 257.152L125.35 260.275C120.127 276.326 115.212 291.251 113.241 296.73 110.399 304.589 109.606 318.976 108.863 332.877 108.275 343.629 107.66 354.739 106.099 362.291 102.412 380.006 83.2634 399.053 75.1226 405.018 69.9002 408.832 69.9258 409.139 70.9498 424.55 71.1802 428.006 71.4618 432.282 71.7434 437.555 72.153 445.21 73.6122 450.355 76.0954 452.89 76.633 453.53 77.1194 453.914 77.5802 454.042 77.7082 454.118 77.8618 454.195 78.0154 454.246 78.7578 454.579 79.5258 454.707 80.2426 454.707 82.5466 454.707 84.569 453.325 85.4906 452.608 89.7658 449.178 91.5834 444.083 93.5034 438.656 94.4762 435.917 95.4746 433.101 96.8314 430.541 99.161 426.086 111.603 415.155 122.559 405.504 130.086 398.874 137.203 392.627 140.787 388.762 149.414 379.443 155.891 327.706 156.582 322.022L168.614 324.838C173.196 325.888 186.278 333.491 189.145 335.155 188.556 335.59 187.737 336.486 187.737 338.022 187.737 339.942 189.708 341.53 190.476 342.067 189.043 344.602 179.161 362.138 174.553 370.022 173.299 372.173 173.964 375.782 176.575 381.107 179.033 386.099 182.847 391.834 185.51 395.699 191.679 404.685 196.569 411.162 202.022 411.162 202.431 411.162 202.815 411.136 203.225 411.059 205.196 410.701 206.835 409.6 208.038 407.782 213.388 399.77 209.446 380.262 208.934 377.882 210.111 376.73 217.766 369.178 224.575 359.859 234.508 346.266 238.015 335.616 234.995 328.218 231.231 318.976 223.628 310.758 216.921 303.488 210.956 297.037 205.836 291.482 205.324 287.155 204.915 283.571 206.681 274.714 210.444 261.53 212.825 253.184 215.385 245.248 216.716 241.28 217.126 240.051 218.124 239.104 219.353 238.771 219.379 238.771 219.404 238.797 219.455 238.797 219.481 238.797 219.481 238.797 219.507 238.797 219.583 238.797 219.66 238.746 219.711 238.694 220.531 238.541 221.35 238.669 222.092 239.027 222.118 239.053 222.143 239.053 222.169 239.053 222.527 239.232 222.86 239.488 223.167 239.77 252.249 269.005 287.603 272.794 297.715 271.821 300.351 271.565 301.529 271.027 302.604 270.566 303.603 270.131 304.396 269.773 306.214 269.747 307.11 270.106 307.724 270.541 308.543 271.13 310.105 272.23 312.46 273.92 319.039 276.762 318.425 277.632 318.195 278.502 318.374 279.373 318.707 281.267 320.755 282.394 320.831 282.445 326.028 285.466 334.271 277.914 335.705 276.557 336.524 276.966 339.187 278.221 342.54 278.81 344.819 279.219 346.457 279.296 347.507 278.426 348.326 277.734 348.71 276.48 348.71 274.509 348.633 270.362 331.763 259.584 313.561 248.576zM215.231 196.25C217.971 196.71 219.737 196.864 221.606 196.89 219.686 198.477 217.51 201.779 215.795 206.336 215.743 205.133 215.539 203.955 215.18 202.803L212.953 195.994C212.927 195.917 212.902 195.84 212.876 195.763 213.644 195.942 214.438 196.122 215.231 196.25zM199.897 175.59C200.435 177.946 203.071 178.227 204.172 178.227 204.377 178.227 204.505 178.227 204.582 178.202 204.633 178.202 204.659 178.15 204.659 178.099 204.428 177.408 202.995 175.437 203.993 174.362 204.531 174.746 205.094 174.874 205.606 174.874 206.937 174.874 208.089 173.952 208.396 173.696 208.447 173.67 208.422 173.594 208.396 173.568 206.22 172.186 206.22 170.573 207.244 169.088 207.91 171.546 210.009 172.954 212.108 173.491 212.134 173.491 212.159 173.491 212.211 173.491 212.39 173.491 212.543 173.363 212.595 173.21 212.646 173.005 212.518 172.8 212.313 172.749 209.164 171.955 207.5 169.651 207.884 166.579 208.243 163.712 210.265 161.382 212.39 161.357 213.516 161.357 214.463 161.715 215.18 162.432 216.742 163.994 216.716 166.784 216.716 166.81 216.716 167.014 216.895 167.194 217.1 167.194 217.305 167.194 217.484 167.04 217.484 166.81 217.484 166.758 217.484 166.221 217.382 165.504 217.817 165.734 218.278 165.811 218.713 165.811 219.379 165.811 219.967 165.632 220.223 165.53 220.275 165.504 220.3 165.427 220.249 165.402 218.79 164.122 219.507 160.461 219.993 158.643 220.147 158.054 220.659 157.619 221.273 157.619 225.599 157.466 229.158 155.52 230.438 154.726 230.489 154.701 230.54 154.675 230.591 154.675 230.771 154.675 230.924 154.829 230.899 155.008 230.54 157.235 228.364 158.234 227.11 158.643 226.956 158.694 226.982 158.925 227.135 158.95 228.518 159.027 229.772 159.078 230.924 159.078 234.687 159.078 237.35 158.643 239.167 157.901 239.526 161.715 236.991 165.53 235.404 167.475 234.764 168.269 234.483 169.293 234.508 170.547 234.687 175.488 234.073 178.637 232.614 180.122 231.462 181.325 229.926 181.325 228.595 181.325 227.391 181.325 226.316 181.888 225.702 182.784 225.369 183.27 225.036 183.731 224.729 184.192L220.582 181.12C220.403 180.992 220.147 181.12 220.147 181.35 220.249 182.502 220.659 185.19 222.425 187.162 220.659 189.21 219.148 190.413 218.047 190.566 216.767 190.771 214.438 190.669 210.675 189.03 210.623 189.005 210.572 188.979 210.521 188.979 207.731 185.549 203.327 181.581 198.412 178.816 198.694 178.176 199.769 177.382 199.897 175.59zM190.143 176.435C197.798 177.997 205.759 184.422 209.881 189.568 210.547 190.387 211.11 191.181 211.545 191.898 212.339 193.178 212.748 194.227 212.723 194.944 212.646 194.918 212.569 194.918 212.492 194.893 210.931 191.232 207.782 188.493 203.891 187.469L183.206 182.042C181.286 181.043 179.391 180.07 177.523 179.174 178.547 177.894 181.926 174.771 190.143 176.435zM179.775 181.146 166.079 177.536C165.644 177.434 165.209 177.331 164.774 177.28 165.388 176.333 165.9 175.667 166.207 175.309 170.431 176.614 174.988 178.739 179.775 181.146zM160.089 173.901C161.42 173.082 162.803 172.8 163.852 173.158 164.62 173.414 165.235 173.952 165.644 174.822 165.235 175.283 164.62 176.102 163.929 177.203 161.574 176.998 159.244 177.459 157.171 178.458 158.015 176.87 159.014 175.334 160.089 173.901zM152.486 174.669C152.511 174.618 152.511 174.592 152.511 174.541 153.894 172.595 156.147 172.032 157.683 172.314 158.579 172.493 159.193 172.928 159.398 173.517 158.246 175.078 157.222 176.717 156.275 178.406 154.431 177.92 152.537 177.894 150.694 178.33 151.231 177.152 151.846 175.923 152.486 174.669zM147.289 188.109C148.364 186.701 149.593 185.651 150.873 185.037 150.873 185.062 150.847 185.088 150.847 185.114L146.419 195.814C146.393 193.331 146.675 190.746 147.289 188.109zM144.038 194.995C144.55 193.05 145.292 191.283 146.163 189.773 145.702 192.435 145.548 195.021 145.702 197.478L143.295 203.315C143.065 200.346 143.372 197.478 144.038 194.995zM125.094 256.922C124.198 254.157 124.326 251.187 125.427 248.499L139.66 214.118C140.915 216.704 142.604 219.187 144.883 221.466 145.497 222.08 146.291 222.413 147.135 222.413 147.98 222.413 148.799 222.08 149.388 221.466 150.643 220.211 150.643 218.189 149.388 216.934 145.855 213.402 144.063 209.101 143.449 204.902L151.539 185.395C151.641 185.139 151.769 184.883 151.897 184.627 151.923 184.627 151.923 184.627 151.948 184.602 154.227 183.987 156.582 184.909 159.014 187.315 160.268 188.57 162.291 188.57 163.545 187.315 164.159 186.701 164.492 185.907 164.492 185.062 164.492 184.218 164.159 183.398 163.545 182.81 161.753 181.018 159.859 179.738 157.887 178.944 159.423 178.253 161.113 177.894 162.828 177.894 163.852 177.894 164.876 178.022 165.9 178.278L203.763 188.211C207.782 189.261 210.956 192.256 212.236 196.198L214.463 203.008C215.359 205.773 215.231 208.742 214.131 211.43L187.993 274.534C185.689 280.115 179.519 283.187 173.683 281.651L135.82 271.718C131.801 270.669 128.627 267.674 127.347 263.731L125.094 256.922zM79.449 449.69 76.0954 451.712C75.6346 451.123 75.1738 450.355 74.7642 449.434L79.7562 446.413C79.705 447.718 79.577 448.819 79.449 449.69zM79.8074 445.466 74.4826 448.717C74.1754 447.949 73.9194 447.104 73.6634 446.106L79.8586 442.317C79.8586 443.469 79.833 444.518 79.8074 445.466zM73.4842 445.286C73.305 444.442 73.1258 443.494 72.9722 442.496L79.7818 438.323C79.8074 439.424 79.833 440.448 79.833 441.395L73.4842 445.286zM72.8698 441.677C72.7674 440.755 72.665 439.782 72.5882 438.733L79.6282 434.432C79.6538 435.098 79.705 435.789 79.7306 436.454 79.7562 436.787 79.7562 437.12 79.7818 437.453L72.8698 441.677zM72.5114 437.862C72.5114 437.734 72.4858 437.606 72.4858 437.478 72.4346 436.582 72.3834 435.738 72.3322 434.893L79.3722 430.541C79.449 431.539 79.5002 432.538 79.577 433.536L72.5114 437.862zM72.3066 434.022C72.2554 432.973 72.1786 431.949 72.1274 431.002L79.0906 426.726C79.1674 427.699 79.2698 428.698 79.3466 429.696L72.3066 434.022zM72.0762 430.131C71.9994 429.107 71.9482 428.109 71.897 427.187L78.7322 422.963C78.8346 423.91 78.937 424.883 79.0138 425.907L72.0762 430.131zM71.8202 426.317C71.769 425.677 71.7434 425.062 71.6922 424.474 71.6666 424.064 71.641 423.68 71.6154 423.296L78.2714 419.2C78.3738 420.122 78.5018 421.094 78.6042 422.093L71.8202 426.317zM71.5642 422.426C71.4874 421.35 71.4362 420.352 71.385 419.43L77.785 415.488C77.913 416.333 78.0666 417.306 78.1946 418.355L71.5642 422.426zM77.529 414.746 71.3338 418.56C71.2826 417.434 71.2314 416.435 71.2058 415.539L77.0426 411.93C77.1962 412.493 77.3498 413.133 77.4778 413.85 77.529 414.106 77.5802 414.387 77.6314 414.669 77.5802 414.72 77.529 414.746 77.529 414.746zM71.1802 414.643C71.2826 413.286 71.4874 412.109 71.7946 411.162L75.5578 408.832C75.993 409.318 76.4282 410.086 76.7866 411.187L71.1802 414.643zM72.2554 409.984C72.793 408.883 73.4586 408.218 74.1242 408.141 74.3802 408.115 74.6362 408.166 74.9178 408.32L72.2554 409.984zM78.1434 453.274C78.0666 453.325 77.9642 453.325 77.8618 453.299 77.4522 453.069 77.017 452.736 76.6074 452.301L79.2698 450.688C78.8858 452.659 78.3994 453.146 78.1434 453.274zM140.198 388.224C138.201 390.4 135.078 393.318 131.391 396.621 131.161 396.16 130.982 395.674 130.931 395.136 130.444 391.68 133.644 387.635 136.23 384.384 136.742 383.744 137.228 383.13 137.638 382.566 137.638 382.541 137.663 382.541 137.663 382.515 139.276 379.418 141.964 374.221 145.651 373.299 145.958 373.222 146.239 373.197 146.547 373.171 144.601 380.16 142.476 385.766 140.198 388.224zM175.167 370.406C180.134 361.907 191.167 342.323 191.27 342.118 191.372 341.939 191.321 341.709 191.142 341.606 191.116 341.581 188.454 339.891 188.454 337.997 188.454 336.154 189.939 335.514 189.99 335.488c0 0 0 0 .024999999999977263.0H190.041C198.182 331.238 205.401 330.368 214.207 332.57 214.412 332.621 214.617 332.493 214.668 332.288 214.719 332.083 214.591 331.878 214.387 331.827 205.478 329.6 198.131 330.445 189.887 334.72 188.019 333.619 173.785 325.222 168.767 324.096L166.284 323.507C166.131 323.456 154.073 320.102 145.215 319.002 145.011 318.976 144.806 319.13 144.78 319.334 144.755 319.539 144.908 319.744 145.113 319.77 148.492 320.205 152.358 320.947 155.839 321.715 155.507 324.454 151.923 353.254 146.751 372.454 146.316 372.454 145.881 372.506 145.471 372.608 141.478 373.581 138.687 378.957 137.023 382.182 136.614 382.72 136.153 383.334 135.641 383.949 132.979 387.302 129.651 391.501 130.188 395.29 130.291 395.955 130.495 396.595 130.828 397.184 128.115 399.616 125.119 402.253 122.073 404.941 110.502 415.104 98.5466 425.626 96.1658 430.208 94.7834 432.819 93.785 435.686 92.8122 438.426 90.9178 443.725 89.1514 448.742 85.0554 452.019 84.0314 452.838 81.4714 454.554 78.8858 453.734 80.4218 452.326 80.985 446.515 80.5498 436.429 80.1658 427.494 79.1162 418.074 78.297 413.722 77.1706 407.68 74.9946 407.27 74.0986 407.373 73.5098 407.45 72.9722 407.757 72.4858 408.294 73.177 407.398 74.1754 406.656 75.609 405.606 83.8522 399.59 103.155 380.365 106.892 362.419 108.479 354.842 109.094 343.68 109.683 332.902 110.451 319.053 111.219 304.742 114.035 296.986 115.98 291.635 120.716 277.197 125.836 261.53L126.63 263.962C127.987 268.16 131.366 271.334 135.641 272.461L173.503 282.394C174.579 282.675 175.679 282.803 176.755 282.803 181.875 282.803 186.687 279.731 188.735 274.816L213.67 214.605C212.799 220.032 212.62 227.072 214.668 235.187 213.337 238.208 195.775 278.272 197.491 288.563 198.335 293.606 205.478 301.363 213.03 309.555 221.324 318.566 229.926 327.91 230.284 333.85 230.822 342.784 212.313 367.437 207.193 372.787 205.145 374.938 204.07 376.627 203.123 378.138 201.715 380.39 200.614 382.182 196.748 384.256L196.415 384.435C194.188 380.954 191.551 377.139 188.582 373.018 186.995 370.816 184.998 369.357 182.796 368.794 180.774 368.282 178.777 368.538 177.113 369.562 176.115 370.176 175.321 371.021 174.758 372.045 174.732 371.456 174.886 370.893 175.167 370.406zM174.783 373.939C175.219 372.224 176.268 370.995 177.446 370.253 179.443 369.024 181.619 369.101 183.59 369.946L175.014 375.04C174.911 374.656 174.835 374.298 174.783 373.939zM176.294 378.726C175.859 377.702 175.5 376.73 175.219 375.834L184.409 370.381C185.356 370.918 186.227 371.61 186.995 372.429L176.294 378.726zM176.601 379.443 187.481 373.018C187.609 373.171 187.737 373.35 187.865 373.504 188.351 374.195 188.838 374.861 189.299 375.526L177.958 382.259C177.471 381.286 177.011 380.339 176.601 379.443zM178.342 382.899 189.759 376.115C190.348 376.96 190.937 377.805 191.5 378.624L179.827 385.536C179.315 384.666 178.803 383.77 178.342 382.899zM180.236 386.227 191.961 379.264C192.55 380.134 193.139 381.005 193.702 381.824L181.849 388.838C181.311 387.994 180.748 387.123 180.236 386.227zM182.259 389.53 194.137 382.515C194.726 383.386 195.289 384.256 195.827 385.075L183.974 392.115C183.411 391.27 182.822 390.4 182.259 389.53zM186.099 395.264C185.535 394.445 184.972 393.6 184.383 392.755L196.236 385.741C196.799 386.637 197.337 387.507 197.849 388.326L186.099 395.264zM186.534 395.904 198.233 388.966C198.796 389.888 199.308 390.758 199.795 391.629L188.3 398.464C187.737 397.619 187.148 396.774 186.534 395.904zM188.761 399.078 200.179 392.294C200.716 393.242 201.203 394.138 201.638 395.008L190.579 401.587C189.99 400.768 189.375 399.949 188.761 399.078zM191.065 402.202 201.996 395.699C202.508 396.723 202.943 397.67 203.302 398.541L193.011 404.608C192.371 403.84 191.731 403.046 191.065 402.202zM194.803 406.502C194.393 406.093 193.958 405.632 193.548 405.171L203.609 399.232C203.993 400.179 204.3 401.229 204.531 402.253L195.827 407.424C195.468 407.168 195.135 406.861 194.803 406.502zM203.711 410.138C203.507 410.189 203.276 410.24 203.046 410.291 202.15 410.445 201.254 410.394 200.307 410.138L204.812 407.45C204.659 408.55 204.3 409.498 203.711 410.138zM204.915 406.502 199.359 409.805C198.412 409.395 197.439 408.806 196.415 407.962L204.659 403.046C204.889 404.275 204.966 405.453 204.915 406.502zM215.948 241.024C214.643 245.018 212.057 252.954 209.676 261.299 205.836 274.765 204.095 283.494 204.531 287.232 205.068 291.789 210.291 297.446 216.332 304 222.988 311.219 230.566 319.386 234.278 328.499 237.913 337.382 230.668 350.208 223.961 359.398 216.639 369.408 208.345 377.395 208.243 377.472 208.14 377.574 208.115 377.702 208.14 377.83 208.191 378.035 212.799 399.283 207.398 407.373 206.732 408.371 205.939 409.139 204.991 409.626 206.271 406.989 205.759 402.586 204.326 398.95 202.943 395.443 200.383 390.758 196.774 385.126L197.03 384.973C201.075 382.797 202.227 380.954 203.686 378.598 204.607 377.114 205.657 375.45 207.654 373.376 212.262 368.589 231.513 343.45 230.95 333.875 230.591 327.654 221.887 318.208 213.516 309.094 206.041 300.979 198.975 293.325 198.182 288.486 197.491 284.262 200.23 273.766 206.118 258.125 209.779 248.371 213.644 239.386 214.924 236.442 215.283 237.773 215.718 239.104 216.204 240.486 216.102 240.64 216.025 240.819 215.948 241.024zM216.716 239.616C216.204 238.106 215.769 236.621 215.385 235.187 212.748 224.819 213.772 216.243 215.257 210.586 217.254 202.957 220.863 197.76 223.244 196.736 223.295 196.71 223.347 196.685 223.372 196.634 225.318 195.558 227.11 195.123 228.364 195.482 228.927 195.635 229.363 195.968 229.695 196.429 222.323 201.216 215.001 208.998 218.995 238.054 218.073 238.336 217.279 238.899 216.716 239.616zM221.836 238.08C221.171 237.85 220.454 237.773 219.737 237.875 215.769 208.922 223.167 201.523 230.412 196.864 232.153 195.712 235.737 195.763 237.785 196.992 238.527 197.427 239.372 198.195 239.475 199.45 237.785 198.861 235.763 199.194 233.74 200.397 227.545 204.083 220.735 216.166 221.836 238.08zM247.999 257.741C242.828 253.44 240.499 247.552 242.7 243.072 244.031 240.333 246.873 238.515 250.662 237.952 251.481 237.824 252.326 237.773 253.196 237.773 256.371 237.773 259.75 238.592 262.95 240.154 267.02 242.15 270.323 245.12 272.243 248.499 274.137 251.827 274.419 255.181 273.087 257.92 271.756 260.659 268.915 262.477 265.126 263.04 262.847 263.373 260.415 263.245 257.958 262.656 254.681 261.248 251.353 259.635 247.999 257.741zM346.918 277.862C346.099 278.554 344.588 278.451 342.591 278.093 339.75 277.581 337.369 276.557 336.319 276.07 337.958 272.819 335.321 269.133 334.015 267.29 333.913 267.162 333.836 267.034 333.734 266.906 333.375 266.394 333.247 265.728 333.427 265.139 333.503 264.806 333.58 264.474 333.657 264.166 333.708 263.885 333.529 263.629 333.247 263.552 332.966 263.501 332.71 263.68 332.633 263.962 332.582 264.243 332.505 264.55 332.428 264.858 332.198 265.754 332.351 266.726 332.889 267.494 332.966 267.622 333.068 267.75 333.171 267.878 334.374 269.568 336.883 273.075 335.244 275.84 335.167 275.917 334.502 276.557 333.478 277.402 333.913 272.947 327.59 266.726 327.283 266.419 327.078 266.214 326.745 266.214 326.566 266.419 326.361 266.624 326.361 266.957 326.566 267.136 328.819 269.338 334.015 275.533 332.019 278.554 331.097 279.245 330.022 279.987 328.87 280.627 328.972 280.243 329.023 279.859 329.023 279.424 328.972 275.84 324.953 270.874 322.342 269.389 322.086 269.261 321.779 269.338 321.651 269.568 321.523 269.824 321.599 270.131 321.83 270.259 324.236 271.642 327.974 276.275 327.999 279.424 327.999 280.269 327.769 280.934 327.257 281.446 325.081 282.394 322.854 282.803 321.087 281.779 321.062 281.779 319.295 280.781 319.014 279.245 318.886 278.554 319.116 277.811 319.654 277.094 320.14 277.35 320.883 277.862 320.934 278.502 320.959 278.707 321.113 278.861 321.318 278.861 321.343 278.861 321.343 278.861 321.369 278.861 321.574 278.835 321.727 278.656 321.702 278.451 321.574 277.069 319.833 276.326 319.705 276.275 312.87 273.331 310.489 271.642 308.902 270.515 308.006 269.875 307.366 269.414 306.342 269.005 306.291 268.979 306.239 268.979 306.188 268.979 304.14 268.979 303.193 269.414 302.195 269.85 301.196 270.285 300.07 270.797 297.561 271.053 291.75 271.616 277.516 270.566 260.927 263.91 261.491 263.962 262.028 263.987 262.566 263.987 263.462 263.987 264.358 263.936 265.228 263.782 269.273 263.168 272.294 261.197 273.753 258.227 275.212 255.258 274.905 251.648 272.883 248.09 270.886 244.582 267.481 241.485 263.257 239.437 259.033 237.389 254.527 236.57 250.508 237.158 246.463 237.773 243.443 239.744 241.983 242.714 239.987 246.784 241.446 251.878 245.209 256.102 237.939 251.75 230.591 246.195 223.603 239.181 223.295 238.874 222.937 238.618 222.579 238.387 222.041 228.608 223.116 219.802 225.651 212.89 227.75 207.206 230.745 202.982 234.124 200.986 236.326 199.68 238.399 199.501 239.987 200.474 245.823 204.416 254.963 212.224 263.027 219.11 271.244 226.125 278.31 232.192 280.972 233.421 282.457 234.112 284.3 234.906 286.425 235.827 292.953 238.643 302.835 242.918 313.151 249.139 320.908 253.824 328.998 258.79 335.679 263.424 345.74 270.362 347.865 273.254 347.865 274.432 347.865 276.25 347.558 277.325 346.918 277.862z" fill="#00112c"/><path d="M147.391 182.016C147.238 182.016 147.059 181.939 146.956 181.786 146.905 181.709 146.879 181.606 146.879 181.504 146.879 181.35 146.956 181.171 147.11 181.069L147.263 180.966C147.494 180.813 147.827 180.864 147.98 181.12 148.031 181.197 148.057 181.299 148.057 181.402 148.057 181.555 147.98 181.734 147.827 181.837L147.673 181.939C147.571 181.99 147.468 182.016 147.391 182.016z" fill="#fff"/><path d="M139.916 193.587C139.865 193.587 139.84 193.587 139.788 193.562 139.507 193.485 139.353 193.203 139.43 192.947 140.531 188.8 142.579 185.139 145.164 182.656 145.369 182.451 145.702 182.477 145.881 182.682 146.086 182.886 146.06 183.219 145.856 183.398 143.398 185.779 141.452 189.261 140.377 193.229 140.352 193.434 140.147 193.587 139.916 193.587z" fill="#fff"/><path d="M123.763 254.182 43.8138 264.678C42.1498 264.909 40.5882 263.706 40.3578 262.042L35.5962 225.613C35.3658 223.949 36.569 222.387 38.233 222.157L137.791 209.075C138.15 210.458 138.611 211.814 139.199 213.171L124.684 248.218C123.916 250.112 123.609 252.16 123.763 254.182zM222.118 239.027C222.092 239.027 222.067 239.002 222.041 239.002 221.299 238.643 220.479 238.515 219.66 238.669 219.609 238.72 219.532 238.746 219.455 238.771 219.43 238.771 219.43 238.771 219.404 238.771 219.379 238.771 219.353 238.771 219.302 238.746 218.073 239.078 217.075 240.026 216.665 241.254 216.588 241.485 216.511 241.741 216.409 241.997L224.294 240.947C223.884 240.538 223.475 240.154 223.065 239.744 222.809 239.462 222.476 239.232 222.118 239.027zM238.195 196.326C239.603 197.146 240.319 198.349 240.268 199.782 240.319 199.808 240.371 199.859 240.422 199.885 246.31 203.853 255.449 211.661 263.539 218.573 271.372 225.254 278.745 231.578 281.305 232.781 281.663 232.96 282.073 233.139 282.483 233.318L315.532 228.966C317.196 228.736 318.399 227.2 318.169 225.51L313.356 189.107C313.126 187.443 311.59 186.24 309.9 186.47L237.452 195.994C237.734 196.096 237.964 196.198 238.195 196.326z" fill="url(#paint1_linear)"/><path d="M244.825 203.085 290.854 197.043C298.175 196.07 304.959 201.293 305.932 208.614 306.905 215.936 301.683 222.72 294.361 223.693L272.908 226.509C270.092 224.179 266.867 221.414 263.564 218.598 257.267 213.222 250.355 207.334 244.825 203.085zM124.915 218.854C117.593 219.827 112.371 226.611 113.343 233.933 114.188 240.384 119.539 245.171 125.785 245.581L137.535 217.19 124.915 218.854z" fill="#fff"/><path d="M60.9915 240.794C60.9147 240.307 60.4795 239.949 59.9931 240.026L50.8539 241.229 55.0267 235.802C55.3339 235.418 55.2571 234.854 54.8731 234.547 54.4891 234.24 53.9259 234.317 53.6187 234.701L48.1403 241.843C47.9867 242.022 47.9355 242.278 47.9611 242.509 47.9867 242.739 48.1147 242.97 48.2939 243.098L55.4363 248.576C55.5899 248.704 55.7947 248.755 55.9739 248.755 56.2555 248.755 56.5115 248.627 56.6907 248.397 56.9979 248.013 56.9211 247.45 56.5371 247.142L51.1099 242.97 60.2491 241.766C60.7099 241.741 61.0427 241.306 60.9915 240.794z" fill="#00112c"/><path d="M81.0362 238.182C81.0106 237.952 80.8826 237.722 80.7034 237.594L73.561 232.115C73.177 231.808 72.6138 231.885 72.3066 232.269 71.9994 232.653 72.0762 233.216 72.4602 233.523L77.8874 237.696 68.7482 238.899C68.2618 238.976 67.9034 239.411 67.9802 239.898 68.0314 240.358 68.4154 240.666 68.8762 240.666 68.9274 240.666 68.953 240.666 69.0042 240.666L78.1434 239.462 73.9706 244.89C73.6634 245.274 73.7402 245.837 74.1242 246.144 74.2778 246.272 74.4826 246.323 74.6618 246.323 74.9434 246.323 75.1994 246.195 75.3786 245.965L80.857 238.822C80.985 238.643 81.0618 238.413 81.0362 238.182z" fill="#00112c"/><path d="M102.796 230.528C102.336 230.374 101.824 230.63 101.67 231.091L101.158 232.602C100.876 232.115 100.544 231.68 100.134 231.27 98.5468 229.632 96.2428 228.813 93.9644 229.12 89.9964 229.632 87.1804 233.293 87.718 237.261 87.974 239.181 88.9468 240.896 90.5084 242.074 91.7884 243.046 93.3244 243.584 94.9116 243.584 95.2188 243.584 95.5516 243.558 95.8844 243.533 98.3932 243.2 100.518 241.613 101.568 239.309 101.772 238.848 101.568 238.336 101.107 238.131 100.646 237.926 100.134 238.131 99.9292 238.592 99.1356 240.333 97.5484 241.536 95.654 241.766 94.1948 241.946 92.7612 241.562 91.6092 240.691 90.4572 239.821 89.7148 238.515 89.51 237.056 89.126 234.061 91.2252 231.322 94.2204 230.912 95.9612 230.682 97.6508 231.27 98.8796 232.525 99.1612 232.806 99.4172 233.139 99.622 233.472L97.9836 232.909C97.5228 232.755 97.0108 233.011 96.8572 233.472 96.7036 233.933 96.9596 234.445 97.4204 234.598L101.056 235.827C101.158 235.853 101.235 235.878 101.337 235.878 101.721 235.878 102.054 235.648 102.182 235.264L103.411 231.629C103.539 231.194 103.283 230.682 102.796 230.528z" fill="#00112c"/></g><defs><linearGradient id="paint0_linear" x1="174.792" y1="187.212" x2="203.139" y2="187.212" gradientUnits="userSpaceOnUse"><stop stop-color="#a177ff"/><stop offset="1" stop-color="#02ceff"/></linearGradient><linearGradient id="paint1_linear" x1="35.5679" y1="186.442" x2="318.197" y2="186.442" gradientUnits="userSpaceOnUse"><stop stop-color="#a177ff"/><stop offset="1" stop-color="#02ceff"/></linearGradient><clipPath id="clip0"><path d="M0 0h4e2v512H0z" fill="#fff" transform="translate(-0.499695)"/></clipPath></defs></svg>